<svg width="24" height="14" viewBox="0 0 24 14" version="1.1" xmlns="http://www.w3.org/2000/svg" xmlns:xlink="http://www.w3.org/1999/xlink">
<title>group</title>
<desc>Created using Figma</desc>
<g id="Canvas" transform="translate(689 -1040)">
<g id="group">
<g id="Group">
<g id="Group">
<g id="Vector">
<use xlink:href="#path0_fill" transform="translate(-672.313 1042.95)" fill="#F24355"/>
</g>
<g id="Vector">
<use xlink:href="#path1_fill" transform="translate(-689 1042.96)" fill="#F24355"/>
</g>
<g id="Vector">
<use xlink:href="#path2_fill" transform="translate(-683.263 1040)" fill="#F24355"/>
</g>
</g>
</g>
</g>
</g>
<defs>
<path id="path0_fill" d="M 2.14889 1.00435L 2.54538 1.00435C 3.19641 1.00435 3.72017 1.55217 3.72017 2.22174L 3.72017 4.13406C 3.72017 4.2558 3.66143 4.36739 3.56353 4.43333C 3.42647 4.52464 3.34815 4.68188 3.34815 4.84928L 3.34815 6.69058C 3.34815 6.91884 3.47053 7.11667 3.66633 7.21812C 3.89639 7.33478 5.09076 7.9587 6.19702 8.90217C 6.29003 8.98333 6.34387 9.1 6.34387 9.23188L 6.34387 10.5406C 6.34387 10.8196 6.55925 11.0428 6.82847 11.0428C 7.0977 11.0428 7.31307 10.8196 7.31307 10.5406L 7.31307 9.23188C 7.31307 8.80072 7.13196 8.4 6.80889 8.12609C 5.8348 7.2942 4.79217 6.69565 4.31246 6.43696L 4.31246 5.08261C 4.54742 4.82898 4.68448 4.4942 4.68448 4.13406L 4.68448 2.22174C 4.68448 0.994203 3.72017 3.09599e-07 2.54048 3.09599e-07L 2.14399 3.09599e-07C 0.959413 3.09599e-07 -2.98765e-07 0.999275 -2.98765e-07 2.22174L -2.98765e-07 4.13406C -2.98765e-07 4.4942 0.137059 4.82898 0.372017 5.08261L 0.372017 5.73696C 0.372017 6.01594 0.587395 6.23913 0.856618 6.23913C 1.12584 6.23913 1.34122 6.01594 1.34122 5.73696L 1.34122 4.85435C 1.34122 4.68696 1.25801 4.52971 1.12584 4.43841C 1.02794 4.37246 0.969203 4.26087 0.969203 4.13913L 0.969203 2.22681C 0.969203 1.55217 1.49786 1.00435 2.14889 1.00435Z"/>
<path id="path1_fill" d="M 0.504181 8.12609C 0.186009 8.4 0 8.80072 0 9.23188L 0 10.5406C 0 10.8196 0.215378 11.0428 0.484601 11.0428C 0.753824 11.0428 0.969202 10.8196 0.969202 10.5406L 0.969202 9.23188C 0.969202 9.10507 1.02305 8.98333 1.11605 8.90217C 2.22231 7.96377 3.41668 7.33478 3.64675 7.21812C 3.84255 7.11667 3.96492 6.91884 3.96492 6.69058L 3.96492 4.84927C 3.96492 4.68188 3.8817 4.52464 3.74954 4.43333C 3.65164 4.36739 3.5929 4.2558 3.5929 4.13406L 3.5929 2.22174C 3.5929 1.5471 4.12156 1.00435 4.76769 1.00435L 5.16419 1.00435C 5.81522 1.00435 6.33898 1.55217 6.33898 2.22174L 6.33898 4.13406C 6.33898 4.2558 6.28024 4.36739 6.18234 4.43333C 6.04528 4.52464 5.96696 4.68188 5.96696 4.84927L 5.96696 5.77246C 5.96696 6.05145 6.18234 6.27464 6.45156 6.27464C 6.72078 6.27464 6.93616 6.05145 6.93616 5.77246L 6.93616 5.08261C 7.17112 4.82899 7.30818 4.4942 7.30818 4.13406L 7.30818 2.22174C 7.30818 0.994203 6.34387 -1.54799e-07 5.16419 -1.54799e-07L 4.76769 -1.54799e-07C 3.58311 -1.54799e-07 2.6237 0.999275 2.6237 2.22174L 2.6237 4.13406C 2.6237 4.4942 2.76076 4.82899 2.99572 5.08261L 2.99572 6.43696C 2.52091 6.69565 1.47828 7.29927 0.504181 8.12609Z"/>
<path id="path2_fill" d="M 12.0906 14C 12.3598 14 12.5752 13.7768 12.5752 13.4978L 12.5752 11.8036C 12.5752 11.2913 12.3598 10.8145 11.978 10.4899C 10.671 9.37391 9.27106 8.58261 8.69835 8.27826L 8.69835 6.37101C 9.00184 6.06667 9.17806 5.65072 9.17806 5.20435L 9.17806 2.72899C 9.17806 1.22246 7.99347 7.73996e-08 6.54456 7.73996e-08L 6.03059 7.73996e-08C 4.57679 7.73996e-08 3.3971 1.22754 3.3971 2.72899L 3.3971 5.20435C 3.3971 5.65072 3.57332 6.06667 3.87681 6.37101L 3.87681 8.27826C 3.3041 8.58261 1.90414 9.37391 0.597185 10.4899C 0.215378 10.8145 -1.49382e-07 11.2913 -1.49382e-07 11.8036L -1.49382e-07 13.4978C -1.49382e-07 13.7768 0.215378 14 0.484601 14C 0.753824 14 0.969203 13.7768 0.969203 13.4978L 0.969203 11.8036C 0.969203 11.5957 1.05731 11.3978 1.21395 11.2659C 2.65796 10.0384 4.21946 9.22174 4.51805 9.06957C 4.72364 8.96812 4.85091 8.75507 4.85091 8.52174L 4.85091 6.13768C 4.85091 5.97029 4.76769 5.81304 4.63553 5.72174C 4.4691 5.60507 4.3712 5.41739 4.3712 5.20942L 4.3712 2.73406C 4.3712 1.78043 5.12013 1.00942 6.03549 1.00942L 6.54946 1.00942C 7.46971 1.00942 8.21375 1.78551 8.21375 2.73406L 8.21375 5.20942C 8.21375 5.41232 8.11585 5.60507 7.94942 5.72174C 7.81236 5.81304 7.73404 5.97029 7.73404 6.13768L 7.73404 8.52174C 7.73404 8.75507 7.86131 8.96812 8.0669 9.07464C 8.36549 9.22681 9.92698 10.0435 11.371 11.271C 11.5276 11.4029 11.6157 11.6007 11.6157 11.8087L 11.6157 13.5029C 11.606 13.7768 11.8213 14 12.0906 14Z"/>
</defs>
</svg>
