<?xml version="1.0" standalone="no"?>
<!DOCTYPE svg PUBLIC "-//W3C//DTD SVG 1.1//EN" "http://www.w3.org/Graphics/SVG/1.1/DTD/svg11.dtd" >
<svg xmlns="http://www.w3.org/2000/svg">
<metadata>Generated by IcoMoon</metadata>
<defs>
<font id="icomoon" horiz-adv-x="1024">
<font-face units-per-em="1024" ascent="896" descent="-128" />
<missing-glyph horiz-adv-x="1024" />
<glyph unicode="&#x20;" horiz-adv-x="400" d="" />
<glyph unicode="&#xe900;" glyph-name="account-own-l1" d="M1023.987 384.013c0-282.763-229.224-511.987-511.987-511.987s-511.987 229.224-511.987 511.987c0 282.763 229.224 511.987 511.987 511.987s511.987-229.224 511.987-511.987zM308.025 99.372c-53.436-22.241-75.834-28.989-104.771-40.175-9.637-3.676-40.28-10.95-68.167-18.959 93.664-103.117 228.343-168.212 378.594-168.212 149.936 0 284.326 64.858 377.99 167.529-27.834 8.245-57.637 15.834-67.537 19.694-28.989 11.16-51.361 17.935-104.771 40.123-32.744 13.602-74.942 60.211-74.942 88.071 0 36.762 10.293 56.85 31.431 84.815 21.217 27.834 61.629 132.211 61.629 267.495 0 51.808-49.628 194.838-216.737 204.028-0.158 0.368-0.473 0.578-0.604 0.945-2.206-0.053-4.201-0.368-6.407-0.446-0.63 0-1.182 0.131-1.838 0.158 0-0.131-0.079-0.21-0.105-0.263-171.1-6.565-221.805-152.168-221.805-204.501 0-122.154 40.438-239.687 61.576-267.573 21.191-27.886 35.344-38.127 35.344-74.915-0.079-27.939-46.162-84.29-78.88-97.891z" />
<glyph unicode="&#xe901;" glyph-name="arrow-small-down-50" horiz-adv-x="1882" d="M941.006-128l-941.006 873.996 139.348 150.004 801.659-744.28 801.659 744.28 139.348-150.004z" />
<glyph unicode="&#xe902;" glyph-name="barcode-icon-62" horiz-adv-x="1092" d="M0 896h136.533v-1024h-136.533zM955.733 896h136.533v-1024h-136.533zM477.867 896h136.533v-750.933h-136.533zM477.867 8.533h136.533v-136.533h-136.533zM273.067 8.533h136.533v-136.533h-136.533zM682.667 8.533h136.533v-136.533h-136.533zM273.067 896h68.267v-750.933h-68.267zM750.933 896h68.267v-750.933h-68.267z" />
<glyph unicode="&#xe903;" glyph-name="cart-k5" horiz-adv-x="1126" d="M1024 691.2v-307.2l-679.253-68.267-95.573 375.467h774.827zM163.84 861.867h-95.573c-20.48 0-34.133-13.653-34.133-34.133s13.653-34.133 34.133-34.133h68.267l34.133-68.267 122.88-477.867-37.547-170.667h733.867c20.48 0 34.133 13.653 34.133 34.133s-13.653 34.133-34.133 34.133h-648.533l20.48 102.4 662.187 68.267c37.547 0 68.267 30.72 68.267 68.267v341.333c0 20.48-13.653 34.133-34.133 34.133h-819.2l-34.133 68.267c-10.24 17.067-17.067 34.133-40.96 34.133zM921.6 42.667c-37.547 0-68.267-30.72-68.267-68.267s30.72-68.267 68.267-68.267 68.267 30.72 68.267 68.267-30.72 68.267-68.267 68.267zM341.333 42.667c-37.547 0-68.267-30.72-68.267-68.267s30.72-68.267 68.267-68.267 68.267 30.72 68.267 68.267-30.72 68.267-68.267 68.267z" />
<glyph unicode="&#xe904;" glyph-name="gamburger-bx" horiz-adv-x="1100" d="M0 858.074c0 20.935 17.294 37.926 37.85 37.926h1024.152c20.859 0 37.85-16.839 37.85-37.926v-113.778c0-20.935-17.294-37.926-37.85-37.926h-1024.152c-20.859 0-37.85 16.839-37.85 37.926v113.778zM0 440.889c0 20.935 17.294 37.926 37.85 37.926h1024.152c20.859 0 37.85-16.839 37.85-37.926v-113.778c0-20.935-17.294-37.926-37.85-37.926h-1024.152c-20.859 0-37.85 16.839-37.85 37.926v113.778zM0 23.704c0 20.935 17.294 37.926 37.85 37.926h1024.152c20.859 0 37.85-16.839 37.85-37.926v-113.778c0-20.935-17.294-37.926-37.85-37.926h-1024.152c-20.859 0-37.85 16.839-37.85 37.926v113.778z" />
<glyph unicode="&#xe905;" glyph-name="garage-9z" horiz-adv-x="1134" d="M0 896l1133.714-0.293v-987.136l-73.143-0.293v914.286l-987.794 0.293v-914.286h-72.777zM109.714 786.286v-73.143h913.554v73.143h-913.554zM109.714 676.571v-73.143h913.554v73.143h-913.554zM109.714 566.857v-73.143h913.554v73.143h-913.554zM109.714 457.143v-73.143h913.554v73.143h-913.554zM109.714 347.429v-73.143h913.554v73.143h-913.554zM109.714 237.714v-73.143h913.554v73.143h-913.554zM109.714 128v-73.143h913.554v73.143h-913.554zM109.714 18.286v-73.143h913.554v73.143h-913.554zM511.451-18.286h109.714v-36.571h-109.714v36.571z" />
<glyph unicode="&#xe906;" glyph-name="get-spec" d="M256 508.8c0-70.4 22.4-140.8 64-195.2v3.2c25.6-28.8 41.6-64 48-99.2v-6.4c0-25.6 12.8-48 32-60.8l25.6-19.2v-32c0-9.6 0-19.2 3.2-28.8 0-9.6 3.2-16 3.2-19.2v-6.4c3.2-3.2 9.6-9.6 22.4-12.8l19.2-6.4 12.8-19.2 9.6-9.6c-3.2 0-9.6 3.2-16 3.2h64c-6.4 0-9.6 0-12.8-3.2l9.6 9.6 12.8 19.2 19.2 6.4c12.8 3.2 19.2 9.6 22.4 12.8v6.4c3.2 16 3.2 32 3.2 48v32l25.6 19.2c19.2 12.8 32 35.2 32 60.8v6.4c6.4 38.4 22.4 70.4 48 99.2v-3.2c41.6 57.6 64 124.8 64 195.2 0 144-115.2 259.2-256 259.2s-256-115.2-256-259.2zM832 508.8c0-83.2-28.8-166.4-76.8-233.6-16-19.2-28.8-44.8-32-67.2 0-44.8-22.4-86.4-60.8-112 0-25.6-3.2-54.4-3.2-54.4 0-16-9.6-51.2-67.2-73.6-6.4-9.6-16-19.2-25.6-25.6-6.4-3.2-16-6.4-22.4-6.4h-64c-9.6 0-16 3.2-22.4 6.4-9.6 6.4-19.2 16-25.6 25.6-57.6 19.2-64 54.4-67.2 73.6 0 0-3.2 28.8-3.2 54.4-35.2 25.6-57.6 67.2-60.8 112-3.2 25.6-16 48-32 67.2-48 67.2-76.8 150.4-76.8 233.6 0 179.2 144 323.2 320 323.2s320-144 320-323.2zM384 160h256v-64h-256v64zM480 576h64v-352h-64v352zM416 576h192v-64h-192v64zM99.2 684.8c-48-108.8-48-233.6-3.2-342.4 6.4-16 25.6-25.6 41.6-16 16 6.4 25.6 25.6 16 41.6-38.4 96-38.4 201.6 0 294.4 6.4 16 0 35.2-16 41.6s-32 0-38.4-19.2c0 3.2 0 3.2 0 0zM924.8 684.8c44.8-108.8 48-233.6 0-345.6-6.4-16-25.6-22.4-41.6-16s-22.4 25.6-16 41.6c38.4 96 38.4 201.6 0 294.4-6.4 16 0 35.2 19.2 41.6 12.8 6.4 32 0 38.4-16z" />
<glyph unicode="&#xe907;" glyph-name="my-account-1nk" d="M1023.946 384.018c0 282.323-229.586 511.982-511.91 511.982s-511.982-229.659-511.982-511.982c0-116.13 39.3-223.012 104.751-309.017l-1.156-0.289 7.766-8.525c93.915-118.116 238.4-194.151 400.656-194.151l0.795 0.072h0.722c11.089 0 22.034 1.011 32.979 1.734 6.032 0.361 12.209 0.361 18.169 0.939 12.028 1.228 23.84 3.395 35.688 5.418 5.238 0.939 10.547 1.445 15.677 2.528 11.198 2.312 22.142 5.49 33.123 8.525 5.527 1.553 11.198 2.745 16.616 4.443 11.27 3.612 22.251 7.947 33.232 12.281 4.696 1.806 9.392 3.359 14.015 5.274 12.064 5.238 23.732 11.089 35.399 17.158 2.962 1.553 6.141 2.962 9.030 4.624 12.895 7.008 25.357 14.701 37.566 22.829 1.336 0.831 2.673 1.625 3.973 2.528 33.484 22.576 64.801 48.764 92.543 79.105l31.136 34.098-3.72 1.084c65.56 86.149 104.968 193.104 104.968 309.414zM512.036 837.989c250.32 0 453.935-203.615 453.935-453.935 0-111.073-40.167-212.754-106.63-291.751l-13.293 3.793c-13.076 3.612-24.093 6.646-29.258 8.597-8.886 3.432-17.121 6.43-25.863 9.608-18.061 6.502-38.433 13.907-72.242 27.922-23.298 9.753-52.087 44.429-52.809 56.349 0 26.368 6.213 39.264 23.696 62.381 26.585 34.965 64.043 141.812 64.043 269.97 0 65.307-58.155 211.598-231.284 221.423-3.72 0.47-7.152 0.47-9.753 0.47h-16.327l-0.65-0.975c-165.76-14.34-222.109-156.152-222.109-220.917 0-115.046 37.277-234.716 64.007-269.934 3.504-4.624 6.863-8.777 9.933-12.642 13.473-16.832 17.519-21.853 17.519-40.384-1.084-13.726-33.773-56.349-56.494-65.741-33.701-13.979-54.073-21.384-72.098-27.886-8.814-3.179-17.085-6.213-26.007-9.644-4.804-1.806-15.64-4.587-28.536-8.019-5.31-1.373-11.198-3.070-16.977-4.587-66.535 78.997-106.81 180.823-106.81 291.968 0 250.32 203.651 453.971 454.044 453.971zM730.064-13.893c-1.192-0.722-2.42-1.445-3.684-2.059-10.836-5.852-22.034-11.198-33.448-16.146-2.528-1.084-4.949-2.24-7.477-3.251-10.547-4.335-21.312-8.308-32.22-11.848-3.143-0.975-6.249-2.167-9.392-3.106-11.017-3.359-22.215-6.141-33.593-8.669-2.962-0.65-5.924-1.445-8.958-2.059-12.931-2.601-26.080-4.551-39.372-6.032-1.445-0.181-2.781-0.47-4.154-0.578-14.81-1.517-29.836-2.276-45.043-2.276-5.96 0-11.812 0.578-17.699 0.722-8.055 0.361-16.11 0.542-23.984 1.264-95.649 9.103-186.458 48.764-258.628 112.807 8.308 2.276 14.954 4.226 18.602 5.635 8.561 3.251 16.544 6.141 24.996 9.283 18.675 6.791 39.733 14.376 74.59 28.897 39.372 16.399 92.217 78.275 92.217 119.055 0 39.083-14.701 57.433-30.27 76.83-2.781 3.504-5.779 7.224-9.030 11.414-15.532 20.517-52.159 125.268-52.159 234.86 0 25.791 31.498 157.994 180.967 163.882l6.141-0.361c135.093-7.477 177.102-122.451 177.102-163.557 0-126.858-38.288-216.51-52.231-234.932-23.045-30.342-35.507-54.904-35.507-97.419 0-43.887 53.315-95.143 88.569-109.808 34.893-14.521 55.988-22.178 74.663-28.897 8.416-3.106 16.327-5.96 24.779-9.211 3.504-1.336 9.644-3.251 17.158-5.418-25.285-22.576-52.954-42.623-82.97-59.094z" />
<glyph unicode="&#xe908;" glyph-name="mygarage-benefit-store-i3" d="M64 0v704c0 35.2 28.8 64 64 64h768c35.2 0 64-28.8 64-64v-704h-64v704h-768v-704h-64zM160 672h704v-64h-704zM796.8 320c0 6.4-3.2 12.8-3.2 19.2-25.6 57.6-64 124.8-64 124.8-16 35.2-51.2 60.8-92.8 60.8h-249.6c-38.4-3.2-73.6-25.6-92.8-60.8 0 0-41.6-67.2-64-124.8-3.2-6.4-3.2-12.8-3.2-19.2h-35.2v-64h32v-160c0-12.8 6.4-25.6 12.8-35.2 9.6-9.6 22.4-16 35.2-16h28.8c28.8 0 51.2 22.4 51.2 51.2v44.8h320v-44.8c0-28.8 25.6-51.2 51.2-51.2h19.2c28.8 0 51.2 22.4 54.4 51.2v160h32v64h-32zM416 182.4h-128v64h128v-64zM288 291.2c0 9.6 3.2 19.2 3.2 28.8 19.2 51.2 57.6 112 57.6 112l6.4 6.4c6.4 12.8 19.2 22.4 35.2 25.6h243.2c16 0 28.8-9.6 35.2-25.6v-6.4s35.2-64 57.6-115.2c3.2-9.6 3.2-19.2 3.2-28.8h-441.6zM736 182.4h-128v64h128v-64z" />
<glyph unicode="&#xe909;" glyph-name="my-orders-gy" d="M512 896c-282.353 0-512-229.647-512-512s229.647-512 512-512 512 229.647 512 512-229.683 512-512 512zM512-60.844c-245.289 0-444.844 199.555-444.844 444.844s199.519 444.88 444.807 444.88 444.844-199.555 444.844-444.844-199.591-444.88-444.844-444.88zM697.358 551.62l-264.002-264.002-106.713 106.641c-13.113 13.077-34.391 13.077-47.468 0-13.15-13.077-13.15-34.319 0-47.468l130.411-130.411c6.611-6.575 15.173-9.826 23.77-9.826 8.526 0 17.196 3.251 23.734 9.826v0.072l287.736 287.664c13.113 13.113 13.113 34.391 0 47.468-13.113 13.113-34.391 13.113-47.468 0z" />
<glyph unicode="&#xe90a;" glyph-name="my-wishlist-xi" d="M513.204 726.397c11.52 11.239 23.481 24.003 36.686 35.321 45.878 39.014 99.020 61.13 159.067 66.83 130.93 12.362 250.782-66.95 295.977-185.759 23.681-62.134 24.203-124.909 7.546-189.21-19.025-73.452-60.327-133.338-108.533-189.371-66.348-77.065-142.971-143.293-222.846-205.787-54.307-42.546-110.299-82.684-168.74-120.815-18.062 12.282-36.405 24.484-54.507 37.007-86.497 60.046-169.623 124.428-246.688 196.395-50.734 47.283-98.378 97.294-138.115 154.29-24.283 35.081-45.356 71.847-55.992 113.59-5.82 22.477-11.961 45.356-14.891 68.355-6.583 53.905 1.927 106.004 25.608 154.812 40.299 83.487 105.282 138.356 195.793 159.749 85.895 20.47 165.489 3.532 236.734-48.567 18.985-13.848 35.321-31.147 52.902-46.841zM512.682 620.152c-10.596 12.844-20.992 25.407-31.147 38.131-19.106 23.842-38.452 47.523-63.819 65.184-55.591 38.613-116.681 49.892-182.226 33.997-52.822-12.844-95.127-42.546-126.916-86.698-29.301-40.74-43.429-86.497-42.867-136.79 0.321-30.103 8.429-58.481 17.099-86.778 10.596-34.719 29.702-65.024 50.975-94.083 38.011-52.179 82.925-98.097 130.448-141.687 75.941-69.76 157.662-132.214 242.313-190.856 4.576-3.211 7.546-3.331 12.041 0 45.757 33.997 92.117 66.91 137.192 101.83 73.613 57.116 142.971 119.21 203.379 190.415 39.857 47.042 74.817 96.733 90.029 158.304 9.151 36.927 12.844 73.653 5.419 110.981-22.999 114.875-129.646 194.268-244.36 180.621-58.722-7.024-106.526-33.636-144.697-78.108-17.982-20.872-34.92-42.627-52.862-64.542z" />
<glyph unicode="&#xe90b;" glyph-name="rating-10-e0" horiz-adv-x="6144" d="M541.867 896l128-392.533h418.133l-337.067-238.933 128-392.533-337.067 243.2-332.8-243.2 128 392.533-337.067 238.933h413.867zM1809.067 896l128-392.533h413.867l-337.067-238.933 128-392.533-332.8 243.2-337.067-243.2 128 392.533-337.067 238.933h418.133zM3072 896l128-392.533h413.867l-337.067-238.933 132.267-392.533-337.067 243.2-337.067-243.2 132.267 392.533-337.067 238.933h413.867zM4334.933 896l128-392.533h418.133l-337.067-238.933 128-392.533-337.067 243.2-332.8-243.2 128 392.533-337.067 238.933h413.867zM5602.133 896l128-392.533h413.867l-337.067-238.933 128-392.533-332.8 243.2-337.067-243.2 128 392.533-337.067 238.933h418.133z" />
<glyph unicode="&#xe90c;" glyph-name="select-vehicle-icon-5v" horiz-adv-x="1152" d="M384 0h768v-128h-768zM1152 128v128h-448l-128-128zM1011.2 806.4l-89.6 89.6-505.6-505.6-326.4 326.4-89.6-89.6 416-416zM1152 512h-192l-128-128h320z" />
<glyph unicode="&#xe90d;" glyph-name="star-icon-8y" d="M512 642.695l59.284-129.347 26.947-53.895 59.284-10.779 145.516-21.558-107.789-113.179-37.726-37.726 10.779-53.895 26.947-150.905-129.347 70.063-53.895 26.947-53.895-26.947-123.958-70.063 26.947 150.905 10.779 53.895-37.726 37.726-107.789 113.179 145.516 21.558 59.284 10.779 26.947 53.895 53.895 129.347zM512 896l-156.295-339.537-355.705-53.895 258.695-264.084-64.674-366.484 317.979 172.463 317.979-172.463-59.284 371.874 253.305 258.695-355.705 53.895-156.295 339.537z" />
<glyph unicode="&#xe90e;" glyph-name="wishlist-benefits-manage-ci" d="M224 576l64 64v-224l-64 64h256l-64-64v224l64-64h-256zM480 640v-224h-256v224h256zM544 576l64 64v-224l-64 64h256l-64-64v224l64-64h-256zM800 640v-224h-256v224h256zM544 288l64 64v-224l-64 64h256l-64-64v224l64-64h-256zM800 352v-224h-256v224h256zM224 288l64 64v-224l-64 64h256l-64-64v224l64-64h-256zM480 352v-224h-256v224h256zM160 64h704v640h-704v-640zM160 768h704c35.2 0 64-28.8 64-64v-640c0-35.2-28.8-64-64-64h-704c-35.2 0-64 28.8-64 64v640c0 35.2 28.8 64 64 64z" />
<glyph unicode="&#xe90f;" glyph-name="wishlist-benefits-memorize-ls" d="M902.4 368c12.8 22.4 22.4 44.8 28.8 67.2s12.8 48 12.8 73.6c0 89.6-51.2 169.6-124.8 211.2-35.2 19.2-76.8 28.8-118.4 28.8-73.6 0-140.8-32-188.8-86.4-48 54.4-115.2 86.4-188.8 86.4-41.6 0-83.2-9.6-118.4-28.8-73.6-38.4-124.8-118.4-124.8-208 0-25.6 3.2-51.2 12.8-73.6 41.6-188.8 419.2-422.4 419.2-422.4s64 41.6 144 99.2v80s-70.4-54.4-115.2-86.4c-16-12.8-25.6-19.2-28.8-19.2 0 0-12.8 9.6-28.8 19.2-48 35.2-96 70.4-140.8 108.8-64 54.4-115.2 105.6-150.4 153.6-19.2 28.8-32 54.4-38.4 76.8l-3.2 6.4c-6.4 16-9.6 35.2-9.6 54.4 0 64 35.2 124.8 92.8 153.6 25.6 16 57.6 22.4 86.4 22.4 54.4 0 105.6-22.4 137.6-64l48-57.6 48 57.6c35.2 41.6 86.4 64 137.6 64 32 0 60.8-6.4 86.4-22.4 57.6-32 92.8-89.6 92.8-153.6 0-19.2-3.2-35.2-9.6-54.4l-3.2-6.4c-6.4-22.4-16-48-38.4-76.8 0-3.2-3.2-3.2-3.2-6.4h86.4zM720 240h-128v64h128v128h64v-128h128v-64h-128v-128h-64v128z" />
<glyph unicode="&#xe910;" glyph-name="wishlist-benefits-merge-km" d="M320 384c0 35.2-28.8 64-64 64s-64-28.8-64-64 28.8-64 64-64 64 28.8 64 64zM128 384c0 70.4 57.6 128 128 128s128-57.6 128-128-57.6-128-128-128-128 57.6-128 128zM800 704c0 35.2-28.8 64-64 64s-64-28.8-64-64 28.8-64 64-64 64 28.8 64 64zM608 704c0 70.4 57.6 128 128 128s128-57.6 128-128-57.6-128-128-128-128 57.6-128 128zM800 64c0 35.2-28.8 64-64 64s-64-28.8-64-64 28.8-64 64-64 64 28.8 64 64zM608 64c0 70.4 57.6 128 128 128s128-57.6 128-128-57.6-128-128-128-128 57.6-128 128zM675.2 624l-35.2 54.4-326.4-220.8 35.2-54.4 326.4 220.8zM355.2 358.4l-35.2-54.4 326.4-220.8 35.2 54.4-326.4 220.8zM800 704c0 35.2-28.8 64-64 64s-64-28.8-64-64 28.8-64 64-64 64 28.8 64 64zM608 704c0 70.4 57.6 128 128 128s128-57.6 128-128-57.6-128-128-128-128 57.6-128 128z" />
<glyph unicode="&#xe911;" glyph-name="wishlist-sm" horiz-adv-x="1176" d="M529.446 726.585c-77.938 95.573-213.144 121.363-320.664 61.44-82.223-46.118-133.12-133.158-132.93-227.48 0-27.117 4.399-54.044 12.895-79.796l2.010-7.433c6.978-31.858 24.879-69.139 53.21-110.44 46.156-67.356 116.964-141.198 205.483-217.581 61.061-52.717 126.824-103.386 192.588-150.111 23.021-16.384 44.373-31.023 63.488-43.767 11.378-7.585 19.266-12.705 23.324-15.246h-81.199c4.020 2.503 11.985 7.699 23.324 15.246 19.077 12.743 40.429 27.42 63.412 43.767 65.726 46.725 131.451 97.47 192.512 150.187 88.443 76.383 159.175 150.187 205.293 217.543 28.293 41.339 46.27 78.62 53.248 110.44l1.896 7.092c8.42 25.79 12.667 52.717 12.629 80.024 0.152 94.36-50.707 181.4-132.855 227.404-107.33 60.037-242.271 34.209-319.943-61.25l-58.823-72.211-58.899 72.211zM1004.013 854.168c106.193-59.544 171.88-171.88 171.691-293.698 0.076-35.119-5.423-70.011-16.308-103.424-57.268-258.731-571.164-584.894-571.164-584.894s-514.655 326.163-571.544 584.894c-10.999 33.375-16.687 68.267-16.687 103.424-0.228 121.818 65.498 234.193 171.691 293.698 117.191 65.346 259.413 52.338 362.003-26.548-1.441-1.745 6.561-5.196 6.561-5.196 17.294-14.033 33.375-30.037 47.976-47.9 14.564 17.901 30.644 33.906 47.938 47.938 0 0 7.964 3.527 6.561 5.234 102.324 78.886 244.357 91.857 361.282 26.548z" />
<glyph unicode="&#xe912;" glyph-name="f-contact-email-sy" d="M908.8 108.8h115.2c-38.4-70.4-89.6-128-160-166.4-83.2-44.8-185.6-70.4-307.2-70.4-115.2 0-217.6 19.2-300.8 57.6s-147.2 96-192 172.8c-38.4 76.8-64 160-64 249.6 0 102.4 25.6 192 70.4 281.6 44.8 83.2 108.8 153.6 192 192 83.2 44.8 172.8 64 281.6 64 89.6 0 166.4-19.2 236.8-51.2s121.6-83.2 160-147.2 57.6-134.4 57.6-211.2c0-89.6-25.6-172.8-83.2-243.2-70.4-89.6-160-140.8-268.8-140.8-32 0-51.2 6.4-64 12.8-12.8 12.8-25.6 25.6-32 44.8-44.8-38.4-89.6-57.6-147.2-57.6s-108.8 19.2-147.2 64c-38.4 44.8-57.6 96-57.6 166.4 0 83.2 25.6 160 70.4 230.4 57.6 83.2 128 128 217.6 128 64 0 108.8-25.6 140.8-70.4l12.8 51.2h140.8l-83.2-384c-6.4-25.6-6.4-38.4-6.4-44.8s0-12.8 6.4-19.2c6.4-6.4 6.4-6.4 12.8-6.4 19.2 0 38.4 12.8 64 32 38.4 25.6 64 64 89.6 108.8 19.2 44.8 32 89.6 32 140.8 0 89.6-32 160-96 217.6s-153.6 89.6-262.4 89.6c-89.6 0-172.8-19.2-236.8-64-70.4-38.4-121.6-89.6-153.6-160s-51.2-147.2-51.2-224c0-76.8 19.2-140.8 57.6-204.8s89.6-108.8 160-134.4c70.4-25.6 147.2-44.8 236.8-44.8 83.2 0 160 12.8 217.6 38.4s108.8 57.6 140.8 102.4zM339.2 332.8c0-44.8 6.4-76.8 25.6-102.4 19.2-19.2 38.4-32 70.4-32 19.2 0 38.4 6.4 57.6 12.8 12.8 6.4 25.6 19.2 38.4 32 19.2 25.6 32 57.6 44.8 96 12.8 44.8 19.2 83.2 19.2 121.6s-6.4 70.4-25.6 89.6c-19.2 19.2-44.8 32-70.4 32-32 0-57.6-12.8-83.2-38.4-25.6-19.2-44.8-51.2-57.6-96s-19.2-83.2-19.2-115.2z" />
<glyph unicode="&#xe913;" glyph-name="f-contact-phone-gh" d="M780.8-128h-32c-64 6.4-121.6 32-198.4 76.8-134.4 76.8-256 185.6-345.6 313.6-76.8 102.4-128 204.8-153.6 307.2-19.2 57.6-25.6 108.8-12.8 153.6 6.4 32 19.2 57.6 44.8 76.8 19.2 19.2 38.4 32 57.6 44.8l38.4 32c12.8 12.8 25.6 19.2 44.8 19.2s38.4-6.4 57.6-25.6c12.8-12.8 64-70.4 64-70.4l64-70.4c32-38.4 25.6-70.4-6.4-102.4l-19.2-12.8c-32-19.2-57.6-38.4-83.2-64-12.8-6.4-12.8-19.2-12.8-32 12.8-38.4 32-83.2 70.4-128 64-83.2 128-153.6 198.4-204.8 12.8-6.4 19.2-12.8 32-19.2 6.4-6.4 12.8-6.4 19.2-12.8s12.8-6.4 19.2-6.4 19.2 6.4 19.2 6.4c32 25.6 64 51.2 89.6 76.8 12.8 12.8 32 19.2 51.2 19.2s38.4-6.4 57.6-25.6c44.8-44.8 83.2-96 128-140.8 32-32 25.6-70.4-12.8-102.4l-25.6-25.6c-19.2-12.8-38.4-32-57.6-44.8-25.6-25.6-57.6-38.4-96-38.4z" />
<glyph unicode="&#xe914;" glyph-name="f-contact-address-9b" horiz-adv-x="745" d="M372.364 896c-214.552 0-390.095-170.667-390.095-375.467 0-185.295 302.324-555.886 375.467-638.781 9.752-9.752 24.381-9.752 29.257 0 73.143 82.895 375.467 453.486 375.467 638.781 0 204.8-175.543 375.467-390.095 375.467zM372.364 320.61c-117.029 0-214.552 92.648-214.552 204.8s97.524 204.8 214.552 204.8 214.552-92.648 214.552-204.8c0-112.152-97.524-204.8-214.552-204.8z" />
<glyph unicode="&#xe915;" glyph-name="minus-gray-4c" d="M0 448h1024v-128h-1024z" />
<glyph unicode="&#xe916;" glyph-name="plus-gray-4s" d="M1024 448h-448v448h-128v-448h-448v-128h448v-448h128v448h448z" />
<glyph unicode="&#xe917;" glyph-name="grid-ic-white-7l" d="M0 896h236.308v-236.308h-236.308v236.308zM393.846 896h236.308v-236.308h-236.308v236.308zM787.692 896h236.308v-236.308h-236.308v236.308zM0 502.154h236.308v-236.308h-236.308v236.308zM393.846 502.154h236.308v-236.308h-236.308v236.308zM787.692 502.154h236.308v-236.308h-236.308v236.308zM0 108.308h236.308v-236.308h-236.308v236.308zM393.846 108.308h236.308v-236.308h-236.308v236.308zM787.692 108.308h236.308v-236.308h-236.308v236.308z" />
<glyph unicode="&#xe918;" glyph-name="play-68" horiz-adv-x="614" d="M32.513 888.052c-18.063 15.173-32.513 8.237-32.513-15.173v-977.543c0-23.481 14.595-30.345 32.513-15.389l568.463 476.85c17.846 15.173 17.846 39.521 0 54.621l-568.608 476.634z" />
<glyph unicode="&#xe919;" glyph-name="search-white-9r" d="M801.229 58.573l18.099-18.099 36.198 36.224-18.125 18.099-192.563 192.563-36.198-36.198zM435.2 153.6c-155.52 0-281.6 126.080-281.6 281.6s126.080 281.6 281.6 281.6c155.52 0 281.6-126.080 281.6-281.6s-126.080-281.6-281.6-281.6zM435.2 204.8c127.232 0 230.4 103.168 230.4 230.4s-103.168 230.4-230.4 230.4-230.4-103.168-230.4-230.4 103.168-230.4 230.4-230.4z" />
<glyph unicode="&#xe91a;" glyph-name="plab-view-mode-list-5i-(1)" d="M0 896h1024v-186.182h-1024v186.182zM0 616.727h1024v-186.182h-1024v186.182zM0 337.455h1024v-186.182h-1024v186.182zM0 58.182h1024v-186.182h-1024v186.182z" />
<glyph unicode="&#xe91b;" glyph-name="sp-racing-gear" d="M583.68 401.067c-17.067 0-27.307 13.653-27.307 30.72s13.653 30.72 30.72 27.307c17.067 0 27.307-13.653 27.307-30.72-3.413-13.653-17.067-27.307-30.72-27.307zM887.467 503.467c-30.72 75.093-85.333 126.293-160.427 157.013-71.68 27.307-146.773 37.547-221.867 30.72-40.96-3.413-81.92-13.653-119.467-37.547-47.787-34.133-88.747-75.093-122.88-126.293-6.827-10.24-13.653-20.48-23.893-27.307-10.24-13.653-17.067-27.307-23.893-40.96-27.307-51.2-47.787-109.227-68.267-167.253 0-3.413-3.413-10.24-6.827-13.653-6.827-10.24-10.24-20.48-13.653-34.133 0 0-23.893-64.853 17.067-139.947l3.413-3.413c3.413-6.827 10.24-17.067 13.653-23.893h6.827c20.48 0 40.96 3.413 61.44 3.413l296.96 20.48c88.747 6.827 180.907 13.653 269.653 20.48h3.413c6.827 13.653 23.893 20.48 20.48 37.547 0 3.413 3.413 10.24 3.413 13.653 20.48 23.893 40.96 54.613 54.613 85.333 17.067 40.96 23.893 81.92 27.307 126.293 0 40.96-3.413 78.507-17.067 119.467zM597.333 384c-3.413 0-3.413-3.413-6.827-6.827-37.547-37.547-71.68-75.093-109.227-112.64-17.067-17.067-34.133-23.893-58.027-23.893h-27.307c-44.373 3.413-88.747 3.413-129.707 10.24-34.133 3.413-64.853 17.067-98.987 23.893-3.413 0-3.413 0-6.827 3.413 3.413 13.653 10.24 27.307 13.653 40.96 13.653 44.373 30.72 88.747 51.2 129.707 6.827 13.653 17.067 27.307 23.893 37.547 6.827 6.827 10.24 6.827 17.067 3.413 44.373-17.067 88.747-30.72 133.12-34.133 30.72-3.413 64.853-3.413 95.573-6.827 6.827 0 17.067 3.413 27.307 6.827 13.653 6.827 27.307 10.24 40.96 17.067 27.307 13.653 61.44-6.827 64.853-34.133 0-23.893-6.827-44.373-30.72-54.613z" />
<glyph unicode="&#xe91c;" glyph-name="close-white-8x" d="M571.284 384l441.937 441.937c16.168 16.168 16.168 43.116 0 59.284s-43.116 16.168-59.284 0l-441.937-441.937-441.937 441.937c-16.168 16.168-43.116 16.168-59.284 0s-16.168-43.116 0-59.284l441.937-441.937-441.937-441.937c-16.168-16.168-16.168-43.116 0-59.284 10.779-5.389 21.558-10.779 26.947-10.779s21.558 5.389 26.947 10.779l441.937 441.937 441.937-441.937c5.389-5.389 16.168-10.779 26.947-10.779s21.558 5.389 26.947 10.779c16.168 16.168 16.168 43.116 0 59.284l-431.158 441.937z" />
<glyph unicode="&#xe91d;" glyph-name="group-(6)" d="M512.001 699.926c51.412 0 93.091 41.679 93.091 93.091s-41.679 93.091-93.091 93.091-93.091-41.679-93.091-93.091 41.677-93.091 93.091-93.091zM512.001 839.563c25.707 0 46.546-20.838 46.546-46.546s-20.838-46.546-46.546-46.546-46.546 20.838-46.546 46.546 20.838 46.546 46.546 46.546zM545.816 684.828c-0.412-0.007-0.822-0.018-1.232-0.029h-65.163c-70.023 1.94-128.36-53.254-130.3-123.277-0.011-0.41-0.020-0.822-0.029-1.232v-18.618c0-12.8 12.8-19.783 25.6-19.783h274.618c12.8 0 25.6 6.983 25.6 19.783v18.618c-1.261 70.039-59.058 125.796-129.095 124.538zM397.965 568.437c2.328 34.908 38.4 69.818 81.454 69.818h65.163c43.055 0 79.128-34.908 81.454-69.818h-228.071zM133.819 294.981c12.854 0 23.273 10.419 23.273 23.273-0.074 107.657 48.722 209.529 132.654 276.946 9.208 8.969 9.399 23.703 0.43 32.91-7.802 8.009-20.199 9.337-29.52 3.163-95.031-76.086-150.274-191.28-150.109-313.019 0-12.854 10.419-23.273 23.273-23.273zM625.418-17.835c-0.183-0.065-0.365-0.131-0.546-0.2-72.874-24.393-151.708-24.393-224.583 0-12.205 3.804-25.195-2.951-29.090-15.128-4.421-11.381 1.223-24.193 12.604-28.614 0.448-0.174 0.9-0.334 1.359-0.477 82.65-27.932 172.188-27.932 254.836 0 12.335 4.401 19.008 17.745 15.128 30.255-4.29 12.112-17.591 18.455-29.707 14.163zM716.801 608c94.256-66.357 150.27-174.476 150.109-289.746 0-12.854 10.419-23.273 23.273-23.273s23.273 10.419 23.273 23.273c-0.323 130.398-63.598 252.613-169.892 328.146-10.604 7.39-25.19 4.786-32.583-5.818-7.39-10.604-4.784-25.193 5.82-32.583zM162.909 59.926c51.412 0 93.091 41.679 93.091 93.091s-41.679 93.091-93.091 93.091-93.091-41.677-93.091-93.091 41.679-93.091 93.091-93.091zM162.909 199.563c25.707 0 46.546-20.838 46.546-46.546s-20.838-46.546-46.546-46.546-46.546 20.838-46.546 46.546 20.838 46.546 46.546 46.546zM196.724 44.827c-0.412-0.007-0.822-0.018-1.232-0.029h-65.166c-70.023 1.94-128.36-53.254-130.3-123.277-0.011-0.41-0.020-0.822-0.029-1.232v-18.618c0-12.8 12.8-19.783 25.6-19.783h274.618c12.8 0 25.6 6.983 25.6 19.783v18.618c-1.256 70.039-59.054 125.796-129.093 124.538zM48.873-71.563c2.328 34.908 38.4 69.818 81.454 69.818h65.163c43.055 0 79.128-34.908 81.454-69.818h-228.071zM767.999 153.017c0-51.412 41.679-93.091 93.091-93.091s93.091 41.679 93.091 93.091-41.679 93.091-93.091 93.091-93.091-41.677-93.091-93.091zM907.636 153.017c0-25.707-20.838-46.546-46.546-46.546s-46.546 20.838-46.546 46.546 20.838 46.546 46.546 46.546 46.546-20.838 46.546-46.546zM894.905 44.827c-0.412-0.007-0.822-0.018-1.232-0.029h-65.163c-70.023 1.94-128.36-53.254-130.3-123.277-0.011-0.41-0.020-0.822-0.029-1.232v-18.618c0-12.8 12.8-19.783 25.6-19.783h274.618c12.8 0 25.6 6.983 25.6 19.783v18.618c-1.258 70.039-59.056 125.796-129.095 124.538zM747.054-71.563c2.328 34.908 38.4 69.818 81.454 69.818h65.163c43.055 0 79.128-34.908 81.454-69.818h-228.071z" />
<glyph unicode="&#xf100;" glyph-name="uniF100" d="M661.334 128c11.781 0 21.332-9.553 21.334-21.332v-149.334c0-47.131-38.205-85.334-85.334-85.334h-512c-47.129 0-85.334 38.203-85.334 85.332v853.334c0 47.129 38.205 85.334 85.334 85.334h512c47.129 0 85.332-38.205 85.334-85.334v-149.334c0-11.781-9.553-21.334-21.334-21.334h-42.666c-11.781 0-21.334 9.553-21.334 21.334v149.334h-512v-853.334h512v149.334c0 11.781 9.553 21.334 21.334 21.334h42.666zM1017.084 399.73c4.416-4.043 6.916-9.75 6.916-15.73s-2.5-11.688-6.916-15.73l-256-234.666c-4.020-3.666-9.186-5.604-14.416-5.604-2.896 0-5.834 0.582-8.584 1.813-7.75 3.393-12.75 11.061-12.75 19.52v42.666c0 6.041 2.563 11.813 7.063 15.854l148.301 133.48h-603.364c-11.791 0-21.334 9.541-21.334 21.334v42.666c0 11.791 9.543 21.334 21.334 21.334h603.364l-148.301 133.48c-4.5 4.041-7.063 9.811-7.063 15.854v42.668c0 8.459 5 16.125 12.75 19.52 7.688 3.459 16.75 1.896 23-3.791z" />
<glyph unicode="&#xf101;" glyph-name="uniF101" d="M971.586 491.492c30.588-5.135 52.836-31.445 52.408-62.463v-90.057c0-31.018-22.248-57.328-52.836-62.463l-71.875-11.979c-7.273-23.957-17.113-47.273-28.879-69.734l42.355-59.467c17.969-25.242 14.975-59.682-6.846-81.502l-63.746-63.744c-11.979-11.98-27.807-18.611-44.707-18.611v0c-13.262 0-26.096 4.064-36.793 11.766l-59.252 42.354c-22.248-11.764-45.564-21.391-69.736-28.877l-12.193-71.875c-5.133-30.588-31.443-52.836-62.461-52.836h-90.271c-31.016 0-57.328 22.248-62.461 52.836l-11.98 71.875c-23.316 7.273-45.99 16.471-67.596 27.809l-60.109-42.783c-10.695-7.701-23.316-11.764-36.578-11.764-16.898 0-32.729 6.631-44.707 18.609l-63.746 63.746c-22.033 21.818-24.812 56.258-6.846 81.5l42.141 58.611c-11.979 22.246-21.818 45.562-29.305 69.521l-72.73 12.406c-30.59 5.135-52.836 31.445-52.836 62.463v90.057c0 31.018 22.246 57.328 52.836 62.461l71.020 11.98c7.271 24.172 16.684 47.488 28.449 69.949l-42.781 60.107c-17.969 25.242-14.975 59.682 6.844 81.502l63.961 63.744c11.764 11.98 27.807 18.611 44.707 18.611 13.262 0 26.098-4.064 36.793-11.766l58.824-42.354c22.248 11.979 45.564 21.818 69.521 29.305l12.408 72.73c5.133 30.59 31.443 52.836 62.461 52.836h90.057c31.018 0 57.328-22.246 62.463-52.836l11.979-71.020c25.027-7.486 49.199-17.541 72.303-29.732l59.467 42.354c10.695 7.701 23.316 11.766 36.578 11.766 16.9 0 32.729-6.631 44.709-18.611l63.744-63.744c22.033-21.82 24.814-56.26 6.846-81.5l-42.354-59.254c11.764-22.248 21.391-45.562 28.877-69.736zM966.666 338.972h0.213v90.057c0 2.781-1.926 5.135-4.705 5.563l-89.844 15.188c-11.123 1.711-20.32 10.053-23.102 21.176-8.129 31.445-20.535 61.607-37.221 89.629-5.775 9.84-5.348 22.248 1.283 31.445l52.836 74.229c1.498 2.352 1.283 5.348-0.643 7.271l-63.744 63.746c-1.498 1.498-3.209 1.711-4.064 1.711-1.070 0-2.139-0.428-3.209-1.068l-73.799-53.051c-9.412-6.631-21.605-7.059-31.445-1.283-28.664 16.898-59.467 29.52-91.768 37.648-11.125 2.781-19.467 11.979-21.393 23.316l-14.973 89.201c-0.428 2.781-2.781 4.705-5.563 4.705h-90.057c-2.781 0-5.133-1.924-5.561-4.705l-15.402-90.484c-1.926-11.123-10.268-20.107-21.178-23.104-31.445-8.129-61.605-20.963-89.414-37.648-9.84-5.775-22.248-5.348-31.66 1.283l-73.799 52.623c-0.855 0.643-1.926 1.070-3.209 1.070-1.068 0-2.566-0.215-4.064-1.713l-63.744-63.744c-1.926-1.926-2.141-5.135-0.643-7.273l53.264-74.869c6.631-9.197 7.273-21.391 1.498-31.23-16.471-28.023-28.664-58.398-36.58-89.844-2.779-11.123-11.979-19.465-23.314-21.391l-89.201-14.975c-2.781-0.428-4.707-2.779-4.707-5.561v-90.057c0-2.781 1.926-5.135 4.707-5.563l90.484-15.4c11.123-1.926 20.107-10.268 23.102-21.178 8.129-31.445 20.963-61.607 37.648-89.416 5.775-9.84 5.348-22.246-1.283-31.658l-52.623-73.799c-1.496-2.354-1.283-5.348 0.643-7.273l63.746-63.746c1.496-1.496 3.209-1.711 4.064-1.711 1.068 0 2.139 0.428 3.207 1.070l74.869 53.264c4.92 3.637 10.91 5.348 16.686 5.348 4.92 0 10.055-1.283 14.547-3.852 27.594-15.828 57.113-28.021 87.703-35.936 10.91-2.781 19.252-11.766 21.178-23.104l14.973-89.842c0.428-2.781 2.781-4.707 5.563-4.707h90.057c2.781 0 5.133 1.926 5.561 4.707l15.189 89.842c1.711 11.123 10.053 20.322 21.176 23.104 31.445 8.129 61.607 20.535 89.629 37.221 9.84 5.775 22.248 5.348 31.445-1.285l74.227-52.836c0.857-0.641 1.926-1.068 3.209-1.068 1.070 0 2.568 0.213 4.064 1.711l63.746 63.746c1.926 1.924 2.139 5.133 0.643 7.271l-52.838 74.441c-6.631 9.412-7.059 21.605-1.283 31.445 16.686 28.023 29.092 58.184 37.221 89.629 2.781 10.91 11.766 19.252 23.104 21.178l89.842 14.973c2.781 0.428 4.707 2.781 4.707 5.563zM512.104 605.078c121.93 0 220.97-99.041 220.97-220.97s-99.041-220.97-220.97-220.97-220.97 99.041-220.97 220.97 99.041 220.97 220.97 220.97zM512.104 220.894c90.057 0 163.215 73.156 163.215 163.213s-73.158 163.215-163.215 163.215-163.215-73.158-163.215-163.215 73.158-163.213 163.215-163.213z" />
<glyph unicode="&#xf102;" glyph-name="uniF102" d="M991.286-36.701c20.617-21.445 19.934-55.635-1.492-76.254-10.084-9.707-23.369-15.045-37.371-15.045-14.795 0-28.6 5.879-38.863 16.537l-245.566 255.398c-69.727-49.002-151.283-74.814-236.866-74.814-227.966 0-413.44 185.473-413.44 413.44s185.473 413.44 413.44 413.44 413.44-185.473 413.44-413.44c0-97.572-34.332-191.297-96.996-265.788zM431.126 788.146c-168.504 0-305.586-137.082-305.586-305.586s137.082-305.586 305.586-305.586 305.586 137.082 305.586 305.586-137.082 305.586-305.586 305.586z" />
<glyph unicode="&#xf103;" glyph-name="uniF103" d="M877.856 605.836c13.99-14.932 21.248-35.207 19.912-55.623l-1.471-22.537-5.881-90.207c-2.049-31.432-19.75-59.26-47.348-74.438-13.846-7.617-29.041-11.424-44.227-11.424-15.191 0-30.379 3.807-44.227 11.424-27.596 15.18-45.297 43.006-47.35 74.438l-5.146 78.943-2.199 33.801c-1.332 20.416 5.926 40.691 19.914 55.623s33.748 23.496 54.207 23.496h49.605c20.459 0 40.219-8.563 54.209-23.496zM740.624 552.868l0.826-12.648c43.021 6.883 58.566 26.004 61.641 30.43l6.703 17.883h-35.754c-9.357 0-18.035-3.76-24.436-10.59s-9.59-15.736-8.98-25.074zM849.704 440.124l4.773 73.184c-11.846 3.225-20.734 6.393-26.93 9.592-3.365 1.738-6.426 3.594-9.178 5.553-14.627-11.547-38.125-23.93-74.262-29.055l3.865-59.273c1.141-17.461 10.973-32.918 26.305-41.348 15.383-8.461 33.746-8.461 49.129 0 15.332 8.432 25.162 23.891 26.297 41.348zM846.278 559.144c1.396-0.721 4.547-2.135 10.854-4.121 0.025 8.082-2.84 15.715-8.139 21.852l-5.953-15.871c0.854-0.549 1.9-1.166 3.238-1.859zM1023.674 178.277c1.076-5.951-0.539-12.072-4.414-16.713-3.877-4.641-9.611-7.322-15.658-7.322h-205.024l8.402-46.375c1.076-5.949-0.541-12.070-4.414-16.711-3.879-4.641-9.613-7.322-15.658-7.322h-550.476c-6.045 0-11.779 2.682-15.654 7.322-3.877 4.641-5.494 10.76-4.416 16.711l8.398 46.377h-204.36c-6.047 0-11.781 2.684-15.656 7.324-3.879 4.643-5.494 10.762-4.416 16.713l8.215 45.346c10.125 55.9 54.408 100.514 110.197 111.018 8.42 1.586 17.033 2.391 25.602 2.391h24.736c5.41 0 10.6-2.15 14.424-5.975l41.65-41.652 41.65 41.652c3.826 3.824 9.014 5.975 14.424 5.975h24.74c8.568 0 17.182-0.803 25.602-2.391 18.080-3.404 35.014-10.295 50.383-20.443 7.004 0.83 14.051 1.297 21.080 1.297h43.689c5.348 0 10.48-2.098 14.295-5.844l50.496-49.592 49.271 49.438c3.828 3.842 9.025 5.998 14.447 5.998h45.066c7.232 0 14.482-0.484 21.678-1.365 15.371 10.172 32.312 17.098 50.451 20.512 8.42 1.586 17.033 2.391 25.602 2.391h24.74c5.41 0 10.598-2.15 14.424-5.975l41.652-41.652 41.65 41.65c3.828 3.824 9.014 5.975 14.424 5.975h24.742c8.568 0 17.182-0.803 25.602-2.391 55.787-10.504 100.072-55.119 110.199-111.020zM438.38 274.7h-18.18l91.463-91.465 91.465 91.465h-19.426l-57.588-57.781c-7.914-7.936-20.746-8.006-28.742-0.152zM234.278 195.037c14.957 43.191 46.176 79.041 86.199 100.094-4.801 0.723-9.662 1.104-14.504 1.104h-16.293l-50.1-50.1c-7.967-7.965-20.883-7.965-28.85 0l-50.1 50.1h-16.291c-6.039 0-12.111-0.566-18.049-1.684-39.287-7.398-70.473-38.822-77.607-78.199l-3.859-21.314h189.453zM260.856 124.627h501.628l-6.689 36.922c-9.477 52.309-48.922 94.709-99.691 108.422l-130.008-130.008c-7.969-7.967-20.883-7.969-28.852 0l-130.008 130.008c-50.771-13.709-90.215-56.111-99.693-108.422zM789.056 195.039v0.002h190.121l-3.861 21.312c-7.135 39.375-38.32 70.803-77.607 78.199-5.939 1.115-12.012 1.684-18.051 1.684h-16.291l-50.1-50.1c-3.828-3.824-9.014-5.975-14.424-5.975s-10.598 2.15-14.424 5.975l-50.102 50.1h-16.289c-5.012 0-10.047-0.412-15.010-1.186 39.945-21.064 71.1-56.879 86.037-100.012zM304.164 605.836c13.99-14.932 21.25-35.207 19.916-55.623l-1.469-22.537-5.883-90.207c-2.049-31.43-19.75-59.258-47.348-74.438-13.846-7.617-29.037-11.424-44.227-11.424s-30.381 3.809-44.227 11.424c-27.596 15.18-45.297 43.006-47.348 74.438l-5.146 78.941-2.205 33.803c-1.33 20.418 5.93 40.693 19.92 55.625 13.988 14.93 33.746 23.494 54.205 23.494h49.604c20.459 0 40.217-8.564 54.207-23.496zM166.938 552.866l0.826-12.627c43.301 7.006 59.012 26.615 61.588 30.281l6.756 18.012h-35.754c-9.357 0-18.035-3.758-24.436-10.59-6.4-6.83-9.59-15.736-8.98-25.076zM276.022 440.126l4.771 73.182c-11.842 3.225-20.732 6.393-26.928 9.592-3.367 1.74-6.43 3.594-9.18 5.553-14.627-11.545-38.125-23.93-74.262-29.055l3.867-59.273c1.137-17.459 10.969-32.918 26.299-41.348 15.383-8.461 33.748-8.461 49.131 0 15.332 8.432 25.164 23.889 26.301 41.35zM272.59 559.144c1.398-0.721 4.549-2.135 10.857-4.121 0.021 8.080-2.842 15.715-8.143 21.852l-5.953-15.871c0.854-0.547 1.9-1.166 3.238-1.859zM612.75 654.8c17.48-18.66 26.551-43.996 24.885-69.51l-1.973-30.297-7.908-121.256c-2.6-39.844-25.037-75.119-60.025-94.363-17.549-9.652-36.811-14.48-56.064-14.48-19.26 0-38.51 4.826-56.062 14.48-34.986 19.242-57.428 54.52-60.025 94.363l-6.922 106.113-2.961 45.439c-1.664 25.514 7.408 50.852 24.889 69.51 17.482 18.658 42.176 29.363 67.744 29.363h66.68c25.568 0 50.262-10.705 67.744-29.363zM428.008 563.372c68.625 8.799 91.85 39.855 95.643 45.688l12.867 34.309h-58.191c-14.543 0-28.027-5.844-37.971-16.457s-14.898-24.449-13.951-38.965zM587.044 436.394l6.791 104.139c-18.223 4.705-31.525 9.26-40.361 13.826-6.164 3.184-11.469 6.643-15.908 10.355-19.221-16.342-52.588-35.521-106.904-42.092l5.625-86.227c1.688-25.871 16.258-48.777 38.977-61.271 22.793-12.535 50.010-12.535 72.805 0 22.719 12.494 37.291 35.398 38.977 61.27zM596.93 587.948c0.945 14.514-4.010 28.35-13.953 38.963-2.104 2.248-4.379 4.268-6.779 6.078l-13.518-36.051c1.453-1.4 4.273-3.619 9.525-6.334 3.193-1.65 10.102-4.578 24.34-8.561zM361.050 180.322c11.266 0 20.398-9.131 20.398-20.398 0-11.266-9.133-20.396-20.398-20.396h-53.037c-11.266 0-20.396 9.131-20.396 20.396 0 11.268 9.131 20.398 20.396 20.398h53.037zM422.246 180.322c11.268 0 20.398-9.131 20.398-20.398 0-11.266-9.131-20.396-20.398-20.396h-4.080c-11.266 0-20.396 9.131-20.396 20.396 0 11.268 9.131 20.398 20.396 20.398h4.080z" />
<glyph unicode="&#xf104;" glyph-name="uniF104" d="M325.818 174.547c0 12.852 10.418 23.271 23.271 23.271s23.271-10.42 23.271-23.271c0-12.854-10.418-23.273-23.271-23.273s-23.271 10.42-23.271 23.273zM1000.728 11.637c13.961 0 23.271-9.309 23.27-23.275v-93.090c0-13.961-9.309-23.271-23.271-23.271h-977.456c-13.961 0-23.271 9.311-23.271 23.273v93.090c0 13.965 9.311 23.273 23.271 23.275h139.639v349.090c0 13.961 9.309 23.271 23.271 23.271h232.726c13.961 0 23.271-9.309 23.271-23.271v-279.276c0-13.961-9.309-23.271-23.271-23.271s-23.271 9.309-23.271 23.271v256h-186.184v-325.814h698.186v349.090c0 13.961 9.307 23.271 23.271 23.271 13.961 0 23.271-9.309 23.271-23.271v-372.366c0-13.961-9.309-23.271-23.271-23.271h-884.363v-46.545h930.908v69.816c0 13.963 9.309 23.273 23.273 23.273zM954.182 758.69l46.547-207.126v-4.654c0-76.801-62.836-139.637-139.637-139.637-48.873 0-90.764 25.6-116.363 62.836-25.6-37.236-67.492-62.836-116.365-62.836s-90.764 25.6-116.363 62.836c-25.6-37.236-67.492-62.836-116.363-62.836-48.875 0-90.766 25.6-116.365 62.836-25.6-37.236-67.492-62.836-116.363-62.836-16.293 0-32.582 2.328-46.547 9.311v-335.128c0-13.961-9.309-23.271-23.271-23.271-13.961 0-23.271 9.309-23.271 23.271v360.728c-27.928 25.6-46.547 62.838-46.547 104.729v4.654l46.547 183.854v137.311c0 13.961 9.309 23.271 23.271 23.271h837.82c13.961 0 23.271-9.311 23.271-23.271v-114.039zM116.363 849.454v-93.090h791.274v93.090h-791.274zM861.090 453.818c44.221 0 79.129 30.254 90.764 69.82h-114.035c-13.963 0-23.271 9.309-23.271 23.271s9.307 23.271 23.271 23.271h109.381l-30.254 139.637h-148.945v-69.818c0-13.965-9.314-23.271-23.275-23.271-13.963 0-23.273 9.307-23.273 23.271v69.818h-186.182v-69.818c0-13.963-9.309-23.271-23.271-23.271s-23.271 9.307-23.271 23.271v69.818h-186.182v-69.818c0-13.963-9.311-23.271-23.273-23.271-13.961 0-23.271 9.307-23.271 23.271v69.818h-144.293l-41.889-165.236c2.326-51.199 41.889-90.764 93.090-90.764 44.219 0 81.453 30.254 90.764 69.818h-114.035c-13.963 0-23.273 9.309-23.273 23.271s9.309 23.271 23.273 23.271h139.637c13.963 0 23.273-9.309 23.273-23.271 0-51.201 41.889-93.090 93.090-93.090 44.217 0 81.453 30.254 90.764 69.818h-114.035c-13.961 0-23.271 9.309-23.271 23.271s9.309 23.271 23.271 23.271h139.637c13.963 0 23.271-9.309 23.271-23.271 0-51.201 41.891-93.090 93.090-93.090 44.219 0 81.455 30.254 90.766 69.818h-114.037c-13.961 0-23.271 9.309-23.271 23.271s9.309 23.271 23.271 23.271h139.637c13.961 0 23.271-9.309 23.271-23.271 0-51.201 41.891-93.090 93.090-93.090zM837.818 384c13.963 0 23.271-9.311 23.271-23.271v-279.274c0-13.961-9.309-23.271-23.271-23.271h-325.818c-13.963 0-23.271 9.309-23.271 23.271v279.274c0 13.961 9.307 23.271 23.271 23.271h325.818zM814.546 104.729h-0.002v232.724h-279.274v-232.724h279.276z" />
<glyph unicode="&#xf105;" glyph-name="uniF105" d="M584.898 822.858c242.592 0 439.102-196.51 439.102-438.858s-196.51-438.858-439.102-438.858c-121.172 0-230.642 49.25-309.88 128.732l68.998 68.998c61.684-61.684 146.773-100.205 241.126-100.205 188.465 0 341.332 152.867 341.332 341.332s-152.867 341.332-341.332 341.332c-188.463 0-341.332-152.867-341.332-341.332h146.285l-196.756-196.996-3.412 7.068-189.928 189.928h146.285c0 242.348 196.023 438.858 438.614 438.858zM536.38 579.046h73.145v-207.236l170.664-101.182-35.107-59.246-208.702 123.855v243.808z" />
<glyph unicode="&#xf106;" glyph-name="uniF106" d="M702.702 701.954h102.82c38.648 0 69.998-31.35 69.998-69.998v-689.926c0-38.682-31.35-70.029-69.998-70.029h-587.074c-38.648 0-69.967 31.381-69.967 70.029v689.926c0 38.648 31.318 69.998 69.967 69.998h102.916v22.445c0 25.49 20.652 46.143 46.143 46.143h62.119c-6.307 11.4-9.893 25.521-9.893 39.867 0 47.166 38.328 85.592 85.463 85.592s85.496-38.426 85.529-85.592c0-14.346-3.588-28.467-9.895-39.867h75.729c25.457 0 46.143-20.652 46.143-46.143v-22.445zM454.282 810.376c0-16.074 7.494-29.844 19.182-39.865h63.434c11.719 9.99 19.213 23.791 19.213 39.865 0 28.115-22.832 51.043-50.945 51.043-28.051 0-50.883-22.928-50.883-51.043zM805.522-16.342v0 605.26c0 23.76-19.309 43.037-43.037 43.037h-59.848c0-18.957-15.305-34.295-34.262-34.295h-312.814c-18.924 0-34.262 15.371-34.262 34.295h-59.814c-23.76 0-43.037-19.244-43.037-43.037v-605.26c0-23.76 19.277-43.037 43.037-43.037h501c23.76 0 43.037 19.277 43.037 43.037zM286.684 476.588c0 33.584 27.225 60.809 60.809 60.809s60.809-27.225 60.809-60.809c0-33.582-27.225-60.807-60.809-60.807s-60.809 27.225-60.809 60.807zM693.448 510.532c19.117 0 34.582-15.211 34.582-34.295s-15.434-34.295-34.518-34.295h-207.434c-19.115 0-34.582 15.211-34.582 34.295s15.498 34.295 34.582 34.295h207.37zM286.684 304.092c0 33.584 27.225 60.809 60.809 60.809s60.809-27.225 60.809-60.809-27.225-60.809-60.809-60.809-60.809 27.225-60.809 60.809zM693.448 339.124c19.117 0 34.582-15.947 34.582-35.031s-15.434-34.967-34.518-34.967h-207.434c-19.115 0-34.582 15.883-34.582 34.967s15.498 35.031 34.582 35.031h207.37zM286.716 119.746c0 33.566 27.209 60.777 60.775 60.777s60.775-27.211 60.775-60.777c0-33.564-27.209-60.775-60.775-60.775s-60.775 27.211-60.775 60.775zM693.448 154.873c19.117 0 34.582-15.945 34.582-35.031 0-19.051-15.434-34.967-34.518-34.967h-207.434c-19.115 0-34.582 15.883-34.582 34.967 0 19.086 15.498 35.031 34.582 35.031h207.37z" />
<glyph unicode="&#xf107;" glyph-name="uniF107" d="M512.010 810.66c282.758 0 511.99-229.232 511.99-511.992 0-120.535-41.863-234.774-117.076-325.832-8.105-9.814-20.168-15.496-32.895-15.496h-724.084c-12.729 0-24.789 5.682-32.895 15.496-75.105 90.928-116.93 205.002-117.029 325.402-0.002 0.145-0.021 0.285-0.021 0.43 0 0.152 0.021 0.301 0.021 0.453 0.123 141.152 57.354 268.934 149.842 361.476 0.033 0.035 0.061 0.070 0.094 0.104s0.068 0.059 0.1 0.092c92.637 92.594 220.588 149.861 361.928 149.867h0.025zM853.346 42.674c46.578 61.969 75.455 135.336 83.201 213.33h-125.896c-23.564 0-42.666 19.102-42.666 42.664 0 23.564 19.102 42.666 42.666 42.666h125.896c-8.521 85.811-42.471 164.137-94.203 227.35l-28.652-28.65c-16.662-16.662-43.678-16.662-60.338 0-16.662 16.66-16.662 43.676 0 60.338l28.648 28.65c-63.215 51.727-141.537 85.672-227.348 94.189v-125.883c0-23.564-19.102-42.666-42.666-42.666-23.562 0-42.664 19.102-42.664 42.666v125.879c-85.812-8.521-164.131-42.467-227.34-94.195l28.641-28.641c16.662-16.662 16.662-43.678 0-60.338-16.662-16.662-43.678-16.662-60.338 0l-28.641 28.639c-51.721-63.209-85.662-141.529-94.18-227.338h125.863c23.564 0 42.666-19.102 42.666-42.666 0-23.562-19.102-42.664-42.666-42.664h-125.865c7.742-78.012 36.604-151.379 83.164-213.33h682.716zM519.312 213.336l-120.66 120.66 241.318 120.701z" />
</font>
</defs>
</svg>
