<svg width="35" height="22" viewBox="0 0 35 22" version="1.1" xmlns="http://www.w3.org/2000/svg" xmlns:xlink="http://www.w3.org/1999/xlink">
<title>M</title>
<desc>Created using Figma</desc>
<g id="Canvas" transform="translate(-2766 -1878)">
<g id="M">
<use xlink:href="#path0_fill" transform="translate(2768 1874)" fill="#FFFFFF"/>
</g>
</g>
<defs>
<path id="path0_fill" d="M 22.0703 20.0337L 22.0947 19.2036C 22.111 18.6828 22.1598 18.1131 22.2412 17.4946L 22.4365 16.0542C 22.4772 15.7124 22.5179 15.4032 22.5586 15.1265C 21.7855 15.9728 21.1629 16.632 20.6909 17.104L 19.2871 18.4712C 16.1458 21.409 14.2741 22.8779 13.6719 22.8779C 12.7848 22.8779 11.853 22.6867 10.8765 22.3042C 10.3475 22.0926 10.0464 21.8729 9.97314 21.645C 9.85921 21.3602 9.80225 20.9736 9.80225 20.4854C 9.80225 19.9889 9.81852 19.5332 9.85107 19.1182C 9.88363 18.7031 9.92432 18.2922 9.97314 17.8853C 10.022 17.4702 10.0708 17.0755 10.1196 16.7012C 10.1766 16.3187 10.2214 15.985 10.2539 15.7002C 10.3353 15.0573 10.3516 14.7358 10.3027 14.7358L 5.76172 20.3145C 3.62142 22.8291 2.40479 24.2207 2.11182 24.4893C 1.48519 25.0589 0.793457 25.3438 0.0366211 25.3438C -0.337728 25.3438 -0.646973 25.2502 -0.891113 25.063C -1.13525 24.8758 -1.25732 24.6439 -1.25732 24.3672C -1.25732 23.8138 -1.02539 23.236 -0.561523 22.6338L 10.2783 8.85205L 11.5479 7.32617C 13.0615 5.54395 14.0544 4.65283 14.5264 4.65283C 15.1855 4.65283 15.8122 4.81966 16.4062 5.15332C 16.9352 5.44629 17.2363 5.73112 17.3096 6.00781C 17.3421 6.11361 17.2729 6.60596 17.1021 7.48486L 16.6748 9.79199C 16.1947 12.3636 15.9546 14.0238 15.9546 14.7725C 15.9546 15.513 16.04 15.8833 16.2109 15.8833C 16.7643 15.8833 17.8304 14.9759 19.4092 13.1611L 23.3643 8.4248C 24.235 7.42383 24.8128 6.85417 25.0977 6.71582C 25.179 6.67513 25.297 6.65479 25.4517 6.65479C 25.6063 6.65479 25.7772 6.67513 25.9644 6.71582C 26.1597 6.75651 26.355 6.80941 26.5503 6.87451C 26.7537 6.93962 26.9491 7.01693 27.1362 7.10645C 27.3234 7.19596 27.4902 7.28955 27.6367 7.38721C 27.9541 7.5988 28.1087 7.77376 28.1006 7.91211C 28.1006 8.04232 28.068 8.33122 28.0029 8.77881C 27.9378 9.21826 27.8564 9.75537 27.7588 10.3901C 27.0833 14.5975 26.7293 17.0389 26.6968 17.7144C 26.6724 18.3898 26.7415 18.813 26.9043 18.9839C 27.0752 19.1548 27.3234 19.2402 27.6489 19.2402C 28.243 19.2402 29.1056 18.8862 30.2368 18.1782C 31.0018 17.6981 31.6325 17.458 32.1289 17.458C 32.6335 17.458 32.8857 17.6981 32.8857 18.1782C 32.8857 18.6746 32.6172 19.2769 32.0801 19.9849C 31.307 21.0103 30.1514 21.938 28.6133 22.7681C 27.3193 23.4598 26.0905 23.8057 24.9268 23.8057C 23.0225 23.8057 22.0703 22.5483 22.0703 20.0337Z"/>
</defs>
</svg>
