<?xml version="1.0" encoding="iso-8859-1"?>
<!-- Generator: Adobe Illustrator 18.1.1, SVG Export Plug-In . SVG Version: 6.00 Build 0)  -->
<svg xmlns="http://www.w3.org/2000/svg" xmlns:xlink="http://www.w3.org/1999/xlink" version="1.1" id="Capa_1" x="0px" y="0px" viewBox="0 0 406.3 406.3" style="enable-background:new 0 0 406.3 406.3;" xml:space="preserve" width="512px" height="512px">
<g>
	<g>
		<path d="M0.567,125.864L0,267.531c0,4.817,1.983,9.35,5.383,12.467c3.4,3.117,8.217,4.817,12.75,4.533    c0.283,0,14.733-1.133,37.117-1.417c0.283,5.383,1.983,26.633,12.183,48.45c11.333,24.083,35.417,53.267,84.717,54.4    c0.85,0,1.983,0,2.833,0c25.783,0,47.317-7.933,63.75-23.517c19.267-18.417,26.633-42.783,29.467-58.65    c81.317,28.9,129.2,71.117,129.767,71.4l0,0c3.117,2.833,7.083,4.25,11.333,4.25c2.267,0,4.817-0.567,6.8-1.417    c6.233-2.833,10.2-8.783,10.2-15.583V37.464c0-6.8-3.967-12.75-10.2-15.583c-6.233-2.833-13.317-1.7-18.417,2.833    c-0.567,0.567-68.567,61.2-120.133,77.067c-29.75,9.067-71.117,13.883-122.967,13.883c-60.917,0-114.183-6.8-114.75-6.8    c-4.817-0.567-9.633,0.85-13.317,3.967C2.833,116.231,0.567,121.047,0.567,125.864z M154.983,351.964c-0.567,0-1.417,0-1.983,0    c-25.783-0.567-43.35-11.617-54.4-34c-7.367-15.017-9.067-30.033-9.35-35.133c6.8,0,14.167,0.283,21.25,0.567    c1.983,0.85,4.25,1.417,6.8,1.417l0,0c1.983,0,3.683-0.283,5.667-1.133c30.317,1.417,63.183,4.533,92.083,10.767    C213.067,312.014,202.583,351.964,154.983,351.964z M267.75,134.364c36.55-11.333,77.917-39.95,104.55-60.917v254.717    c-23.8-16.15-62.333-38.817-112.767-56.667c-35.983-12.75-81.883-18.7-124.667-20.967l0.567-100.583    C190.4,149.664,234.883,144.564,267.75,134.364z M34.567,144.847c15.583,1.417,39.383,3.4,66.867,4.25l-0.567,99.733    c-7.65-0.283-15.017-0.283-21.817-0.283c-18.133,0-33.717,0.567-45.05,0.85L34.567,144.847z" fill="#2f80ed"/>
	</g>
</g>
<g>
</g>
<g>
</g>
<g>
</g>
<g>
</g>
<g>
</g>
<g>
</g>
<g>
</g>
<g>
</g>
<g>
</g>
<g>
</g>
<g>
</g>
<g>
</g>
<g>
</g>
<g>
</g>
<g>
</g>
</svg>
