<svg width="14" height="18" viewBox="0 0 14 18" version="1.1" xmlns="http://www.w3.org/2000/svg" xmlns:xlink="http://www.w3.org/1999/xlink">
<title>man-user</title>
<desc>Created using Figma</desc>
<g id="Canvas" transform="translate(-1172 1661)">
<g id="man-user">
<g id="Group">
<g id="Vector">
<use xlink:href="#path0_fill" transform="translate(1175.29 -1661)" fill="#4F4F4F"/>
</g>
<g id="Vector">
<use xlink:href="#path1_fill" transform="translate(1172 -1645.55)" fill="#4F4F4F"/>
</g>
<g id="Vector">
<use xlink:href="#path2_fill" transform="translate(1186 -1645.49)" fill="#4F4F4F"/>
</g>
<g id="Vector">
<use xlink:href="#path3_fill" transform="translate(1172 -1651.86)" fill="#4F4F4F"/>
</g>
</g>
</g>
</g>
<defs>
<path id="path0_fill" d="M 3.70576 8.80318C 5.75225 8.80318 7.41141 6.83254 7.41141 4.40162C 7.41141 1.97064 6.86668 0 3.70576 0C 0.544833 0 1.92591e-07 1.97064 1.92591e-07 4.40162C 1.92591e-07 6.83254 1.65916 8.80318 3.70576 8.80318Z"/>
<path id="path1_fill" d="M 0.00072873 0.0761705C 9.76494e-05 -0.0720467 -0.000533431 0.0344105 0.00072873 0.0761705L 0.00072873 0.0761705Z"/>
<path id="path2_fill" d="M -4.49378e-07 0.134635C 0.00199797 0.0940581 0.000683221 -0.146885 -4.49378e-07 0.134635L -4.49378e-07 0.134635Z"/>
<path id="path3_fill" d="M 13.9904 6.20522C 13.9217 1.97049 13.3562 0.763817 9.0284 2.82506e-07C 9.0284 2.82506e-07 8.41919 0.759137 6.99926 0.759137C 5.57933 0.759137 4.97002 2.82506e-07 4.97002 2.82506e-07C 0.689456 0.755486 0.0895083 1.94426 0.0106232 6.06764C 0.00415465 6.40435 0.00115703 6.42204 4.97526e-08 6.38295C 0.000263 6.45619 0.000578423 6.59165 0.000578423 6.82786C 0.000578423 6.82786 1.03092 8.85909 6.99926 8.85909C 12.9675 8.85909 13.9979 6.82786 13.9979 6.82786C 13.9979 6.6761 13.9981 6.57057 13.9982 6.49877C 13.9971 6.52294 13.9947 6.47609 13.9904 6.20522Z"/>
</defs>
</svg>
