<svg width="27" height="29" viewBox="0 0 27 29" version="1.1" xmlns="http://www.w3.org/2000/svg" xmlns:xlink="http://www.w3.org/1999/xlink">
<title>musical-note</title>
<desc>Created using Figma</desc>
<g id="Canvas" transform="translate(-3296 -2407)">
<g id="musical-note">
<g id="Group">
<g id="Vector">
<use xlink:href="#path0_fill" transform="translate(3296 2407)" fill="#FFFFFF"/>
</g>
</g>
</g>
</g>
<defs>
<path id="path0_fill" d="M 26.25 6.33274L 26.25 0.814274C 26.25 0.55522 26.122 0.308214 25.9146 0.157601C 25.7012 0.00698789 25.4268 -0.0412083 25.1768 0.0371105L 8.53659 5.26037C 8.19512 5.36882 7.96341 5.68209 7.96341 6.03754L 7.96341 11.562L 7.96341 11.5681L 7.96341 22.129C 7.09146 21.5326 5.97561 21.2073 4.80488 21.2073C 3.56707 21.2073 2.39024 21.5748 1.4939 22.2375C 0.530488 22.9544 -1.20954e-08 23.9244 -1.20954e-08 24.9786C -1.20954e-08 26.0329 0.530488 27.0029 1.4939 27.7198C 2.39024 28.3825 3.56098 28.75 4.80488 28.75C 6.04878 28.75 7.21951 28.3825 8.11585 27.7198C 9.07927 27.0029 9.60976 26.0329 9.60976 24.9786L 9.60976 12.1585L 24.6037 7.44728L 24.6037 16.8817C 23.7317 16.2853 22.6159 15.9599 21.4451 15.9599C 20.2073 15.9599 19.0305 16.3274 18.1341 16.9901C 17.1707 17.707 16.6402 18.677 16.6402 19.7313C 16.6402 20.7856 17.1707 21.7555 18.1341 22.4724C 19.0305 23.1351 20.2012 23.5026 21.4451 23.5026C 22.689 23.5026 23.8598 23.1351 24.7561 22.4724C 25.7195 21.7555 26.25 20.7856 26.25 19.7313L 26.25 6.33876C 26.25 6.33274 26.25 6.33274 26.25 6.33274ZM 4.80488 27.1234C 3.09146 27.1234 1.64634 26.1414 1.64634 24.9786C 1.64634 23.8159 3.09146 22.8339 4.80488 22.8339C 6.51829 22.8339 7.96341 23.8159 7.96341 24.9786C 7.96341 26.1474 6.51829 27.1234 4.80488 27.1234ZM 9.60976 10.4475L 9.60976 6.62794L 24.6037 1.92279L 24.6037 5.74234L 9.60976 10.4475ZM 21.4512 21.876C 19.7378 21.876 18.2927 20.894 18.2927 19.7313C 18.2927 18.5686 19.7378 17.5866 21.4512 17.5866C 23.1646 17.5866 24.6098 18.5686 24.6098 19.7313C 24.6037 20.894 23.1585 21.876 21.4512 21.876Z"/>
</defs>
</svg>
