<svg width="16" height="18" viewBox="0 0 16 18" version="1.1" xmlns="http://www.w3.org/2000/svg" xmlns:xlink="http://www.w3.org/1999/xlink">
<title>shield-variant-with-white-and-black-borders</title>
<desc>Created using Figma</desc>
<g id="Canvas" transform="translate(-1359 1661)">
<g id="shield-variant-with-white-and-black-borders">
<g id="Group">
<g id="Group">
<g id="Vector">
<use xlink:href="#path0_fill" transform="translate(1361.09 -1658.71)" fill="#4F4F4F"/>
</g>
<g id="Vector">
<use xlink:href="#path1_fill" transform="translate(1359 -1661)" fill="#4F4F4F"/>
</g>
</g>
</g>
</g>
</g>
<defs>
<path id="path0_fill" d="M 5.90897 4.16744e-08C 5.72666 0.134093 3.22661 1.93371 0.0203333 2.55486C -0.402348 9.71341 5.90497 13.4196 5.90897 13.4174C 5.91297 13.4196 12.2203 9.71345 11.7976 2.55467C 8.59118 1.93371 5.90897 4.16744e-08 5.90897 4.16744e-08Z"/>
<path id="path1_fill" d="M 15.9734 3.69614C 15.9606 3.47874 15.7975 3.2972 15.5768 3.25426C 11.6668 2.49704 8.32855 0.118494 8.29562 0.0947482C 8.119 -0.0325926 7.87651 -0.0315684 7.70098 0.0977829C 7.56933 0.194664 4.43178 2.47826 0.423508 3.25449C 0.20266 3.29724 0.0396409 3.47897 0.0267029 3.6964C -0.294473 9.1361 2.34343 13.0493 4.61303 15.3739C 5.46474 16.2465 6.26396 16.8916 6.7845 17.2789C 7.08313 17.501 7.32433 17.6641 7.47394 17.7619C 7.75336 17.9447 7.83377 17.9971 7.98793 17.9998C 7.99436 18 8.00067 18 8.00679 18C 8.15891 18 8.25069 17.9406 8.49271 17.7837C 8.62377 17.6986 8.83607 17.5569 9.10056 17.3633C 9.56135 17.0267 10.2738 16.4665 11.0522 15.7082C 12.5146 14.2839 13.6789 12.6979 14.5121 10.9945C 15.6326 8.70488 16.1243 6.24937 15.9734 3.69614ZM 11.6423 13.6323C 10.1409 15.4539 8.58919 16.5635 8.00012 16.9511C 7.41117 16.5635 5.85951 15.4541 4.35752 13.6314C 2.00806 10.7802 0.878416 7.58009 0.997054 4.11431C 4.38124 3.37485 7.11873 1.66437 8.00271 1.06644C 8.89861 1.6635 11.6833 3.3852 15.0031 4.11405C 15.1218 7.58028 13.9922 10.7809 11.6423 13.6323Z"/>
</defs>
</svg>
