<svg width="18" height="17" viewBox="0 0 18 17" version="1.1" xmlns="http://www.w3.org/2000/svg" xmlns:xlink="http://www.w3.org/1999/xlink">
<title>boxes</title>
<desc>Created using Figma</desc>
<g id="Canvas" transform="translate(2714 4986)">
<g id="boxes">
<g id="XMLID 1014">
<use xlink:href="#path0_fill" transform="translate(-2714 -4986)" fill="#5C5C5C"/>
</g>
</g>
</g>
<defs>
<path id="path0_fill" d="M 17.449 12.5652L 16.898 12.5652L 16.898 6.83696C 16.898 6.53081 16.6512 6.28261 16.3469 6.28261L 13.2245 6.28261L 13.2245 0.554348C 13.2245 0.2482 12.9778 0 12.6735 0L 5.32653 0C 5.02222 0 4.77551 0.2482 4.77551 0.554348L 4.77551 6.28261L 1.65306 6.28261C 1.34875 6.28261 1.10204 6.53081 1.10204 6.83696L 1.10204 12.5652L 0.55102 12.5652C 0.24671 12.5652 0 12.8134 0 13.1196L 0 16.4457C 0 16.7518 0.24671 17 0.55102 17L 2.7551 17C 3.05941 17 3.30612 16.7518 3.30612 16.4457L 3.30612 15.8913L 7.34694 15.8913L 7.34694 16.4457C 7.34694 16.7518 7.59365 17 7.89796 17L 10.102 17C 10.4064 17 10.6531 16.7518 10.6531 16.4457L 10.6531 15.8913L 14.6939 15.8913L 14.6939 16.4457C 14.6939 16.7518 14.9406 17 15.2449 17L 17.449 17C 17.7533 17 18 16.7518 18 16.4457L 18 13.1196C 18 12.8134 17.7533 12.5652 17.449 12.5652ZM 15.7959 7.3913L 15.7959 12.5652L 9.55102 12.5652L 9.55102 7.3913L 15.7959 7.3913ZM 5.87755 1.1087L 12.1224 1.1087L 12.1224 6.28261L 5.87755 6.28261L 5.87755 1.1087ZM 2.20408 7.3913L 8.44898 7.3913L 8.44898 12.5652L 2.20408 12.5652L 2.20408 7.3913ZM 16.898 15.8913L 15.7959 15.8913L 15.7959 15.337C 15.7959 15.0308 15.5492 14.7826 15.2449 14.7826L 10.102 14.7826C 9.79773 14.7826 9.55102 15.0308 9.55102 15.337L 9.55102 15.8913L 8.44898 15.8913L 8.44898 15.337C 8.44898 15.0308 8.20227 14.7826 7.89796 14.7826L 2.7551 14.7826C 2.45079 14.7826 2.20408 15.0308 2.20408 15.337L 2.20408 15.8913L 1.10204 15.8913L 1.10204 13.6739L 16.898 13.6739L 16.898 15.8913Z"/>
</defs>
</svg>
