<svg width="20" height="16" viewBox="0 0 20 16" version="1.1" xmlns="http://www.w3.org/2000/svg" xmlns:xlink="http://www.w3.org/1999/xlink">
<title>dashboard</title>
<desc>Created using Figma</desc>
<g id="Canvas" transform="translate(689 -840)">
<g id="dashboard">
<g id="Group">
<g id="Group">
<g id="Group">
<g id="Vector">
<use xlink:href="#path0_fill" transform="translate(-689 840)" fill="#4C4C4C"/>
</g>
<g id="Vector">
<use xlink:href="#path1_fill" transform="translate(-681.214 846.674)" fill="#4C4C4C"/>
</g>
</g>
</g>
</g>
</g>
</g>
<defs>
<path id="path0_fill" d="M 10.0002 5.37872e-08C 10.0001 5.37872e-08 9.99998 5.37872e-08 9.9999 5.37872e-08C 9.99986 5.37872e-08 9.99986 5.37872e-08 9.99982 5.37872e-08C 9.99979 5.37872e-08 9.99975 5.37872e-08 9.99971 5.37872e-08C 7.23917 0.000112554 4.74011 1.07389 2.93081 2.81006C 2.93018 2.81066 2.92948 2.81115 2.92885 2.81175C 2.92819 2.81239 2.92768 2.81306 2.92702 2.8137C 1.12061 4.54893 0.00281245 6.94484 0.00042968 9.59152C 0.00042968 9.59437 0 9.59714 0 9.59999C 0 9.60273 0.000390618 9.60536 0.00042968 9.60806C 0.00238277 11.8656 0.819243 14.0045 2.28613 15.7095C 2.44445 15.8935 2.68003 16 2.92862 16L 17.0709 16C 17.3195 16 17.555 15.8935 17.7134 15.7095C 19.1824 14.0021 20 11.8601 20 9.59999C 20 4.29817 15.5228 5.37872e-08 10.0002 5.37872e-08ZM 16.6669 14.4L 3.3326 14.4C 2.4232 13.2384 1.8595 11.8627 1.70829 10.4L 4.16661 10.4C 4.62683 10.4 4.99991 10.0418 4.99991 9.59999C 4.99991 9.15817 4.62683 8.80001 4.16661 8.80001L 1.70833 8.80001C 1.87469 7.19107 2.53761 5.72253 3.54779 4.53735L 4.10715 5.07435C 4.43258 5.38676 4.96023 5.38676 5.28565 5.07435C 5.61107 4.76193 5.61107 4.25538 5.28565 3.94297L 4.72625 3.40594C 5.96079 2.43604 7.49045 1.79955 9.16648 1.63976L 9.16648 4.00005C 9.16648 4.44187 9.53956 4.80003 9.99979 4.80003C 10.46 4.80003 10.8331 4.44187 10.8331 4.00005L 10.8331 1.63969C 12.5091 1.7994 14.0388 2.43589 15.2735 3.40579L 14.7139 3.94297C 14.3885 4.25538 14.3885 4.76193 14.7139 5.07435C 15.0393 5.38676 15.567 5.38676 15.8924 5.07435L 16.452 4.53712C 17.4624 5.72238 18.1255 7.19103 18.2919 8.80001L 15.833 8.80001C 15.3728 8.80001 14.9997 9.15817 14.9997 9.59999C 14.9997 10.0418 15.3728 10.4 15.833 10.4L 18.2919 10.4C 18.1407 11.8624 17.5766 13.2381 16.6669 14.4Z"/>
<path id="path1_fill" d="M 2.35664 4.52561L 4.71324 -4.57763e-08L 7.15243e-08 2.2632L 2.35664 4.52561Z"/>
</defs>
</svg>
