<svg width="13" height="18" viewBox="0 0 13 18" version="1.1" xmlns="http://www.w3.org/2000/svg" xmlns:xlink="http://www.w3.org/1999/xlink">
<title>medical-notes-symbol-of-a-list-paper-on-a-clipboard</title>
<desc>Created using Figma</desc>
<g id="Canvas" transform="translate(2286 4987)">
<g id="medical-notes-symbol-of-a-list-paper-on-a-clipboard">
<g id="Group">
<g id="Group">
<g id="Vector">
<use xlink:href="#path0_fill" transform="translate(-2286 -4987)" fill="#5E5E5E"/>
</g>
<g id="Vector">
<use xlink:href="#path1_fill" transform="translate(-2283.53 -4980.7)" fill="#5E5E5E"/>
</g>
<g id="Vector">
<use xlink:href="#path2_fill" transform="translate(-2280.58 -4980.22)" fill="#5E5E5E"/>
</g>
<g id="Vector">
<use xlink:href="#path3_fill" transform="translate(-2283.53 -4977.66)" fill="#5E5E5E"/>
</g>
<g id="Vector">
<use xlink:href="#path4_fill" transform="translate(-2280.58 -4977.21)" fill="#5E5E5E"/>
</g>
<g id="Vector">
<use xlink:href="#path5_fill" transform="translate(-2283.53 -4974.42)" fill="#5E5E5E"/>
</g>
<g id="Vector">
<use xlink:href="#path6_fill" transform="translate(-2280.58 -4973.97)" fill="#5E5E5E"/>
</g>
</g>
</g>
</g>
</g>
<defs>
<path id="path0_fill" d="M 9.90989 3.41099L 9.90989 3.01642C 9.90989 2.56837 9.54001 2.20532 9.08483 2.20532L 7.73072 2.20532C 7.84351 2.00494 7.90764 1.75672 7.90764 1.50455C 7.90707 0.675443 7.22114 0 6.37833 0C 5.53552 0 4.85016 0.675443 4.85016 1.50455C 4.85016 1.75672 4.91429 2.00494 5.02709 2.20532L 3.91632 2.20532C 3.46056 2.20532 3.09126 2.56837 3.09126 3.01642L 3.09126 3.41099L 1.25105 3.41099C 0.559965 3.41099 4.80512e-08 3.96204 4.80512e-08 4.64142L 4.80512e-08 16.769C 4.80512e-08 17.4484 0.559965 18 1.25105 18L 11.7484 18C 12.4395 18 13 17.4489 13 16.769L 13 4.64142C 13 3.96204 12.4395 3.41099 11.7484 3.41099L 9.90989 3.41099ZM 5.46796 1.50511C 5.46796 1.01091 5.87619 0.607899 6.37776 0.607899C 6.88047 0.607899 7.2887 1.01091 7.2887 1.50511C 7.2887 1.78767 7.15472 2.03027 6.94517 2.20588L 5.81092 2.20588C 5.60194 2.02971 5.46796 1.78767 5.46796 1.50511ZM 11.7484 16.0373C 11.7484 16.4549 11.4037 16.7938 10.9789 16.7938L 2.02057 16.7938C 1.59573 16.7938 1.25105 16.4549 1.25105 16.0373L 1.25105 5.39792C 1.25105 4.97971 1.59573 4.64142 2.02057 4.64142L 3.09011 4.64142C 3.09011 4.97408 3.36437 5.24425 3.70275 5.24425L 9.2961 5.24425C 9.63506 5.24425 9.90874 4.97464 9.90874 4.64142L 10.9789 4.64142C 11.4031 4.64142 11.7484 4.98027 11.7484 5.39792L 11.7484 16.0373Z"/>
<path id="path1_fill" d="M 1.08729 2.13778C 1.68779 2.13778 2.17459 1.65922 2.17459 1.06889C 2.17459 0.478558 1.68779 0 1.08729 0C 0.486798 0 0 0.478558 0 1.06889C 0 1.65922 0.486798 2.13778 1.08729 2.13778Z"/>
<path id="path2_fill" d="M 4.32627 6.01209e-08L 0.618366 6.01209e-08C 0.27712 6.01209e-08 2.18415e-07 0.267363 2.18415e-07 0.602833C 2.18415e-07 0.938303 0.276547 1.20567 0.618366 1.20567L 4.32742 1.20567C 4.66866 1.20567 4.94464 0.938303 4.94464 0.602833C 4.94464 0.267363 4.66809 6.01209e-08 4.32627 6.01209e-08Z"/>
<path id="path3_fill" d="M 1.08729 2.13778C 1.68779 2.13778 2.17459 1.65922 2.17459 1.06889C 2.17459 0.478558 1.68779 0 1.08729 0C 0.486798 0 0 0.478558 0 1.06889C 0 1.65922 0.486798 2.13778 1.08729 2.13778Z"/>
<path id="path4_fill" d="M 4.32627 4.20847e-07L 0.618366 4.20847e-07C 0.27712 4.20847e-07 2.18415e-07 0.280309 2.18415e-07 0.615779C 2.18415e-07 0.95125 0.276547 1.23043 0.618366 1.23043L 4.32742 1.23043C 4.66866 1.23043 4.94464 0.95125 4.94464 0.615779C 4.94464 0.280309 4.66809 4.20847e-07 4.32627 4.20847e-07Z"/>
<path id="path5_fill" d="M 1.08672 2.13665C 1.6869 2.13665 2.17344 1.65835 2.17344 1.06833C 2.17344 0.478306 1.6869 0 1.08672 0C 0.486542 0 0 0.478306 0 1.06833C 0 1.65835 0.486542 2.13665 1.08672 2.13665Z"/>
<path id="path6_fill" d="M 4.32627 2.57661e-07L 0.618366 2.57661e-07C 0.27712 2.57661e-07 2.18415e-07 0.280309 2.18415e-07 0.615779C 2.18415e-07 0.95125 0.276547 1.23043 0.618366 1.23043L 4.32742 1.23043C 4.66866 1.23043 4.94464 0.950687 4.94464 0.615779C 4.94464 0.280309 4.66809 2.57661e-07 4.32627 2.57661e-07Z"/>
</defs>
</svg>
