<svg width="15" height="21" viewBox="0 0 15 21" version="1.1" xmlns="http://www.w3.org/2000/svg" xmlns:xlink="http://www.w3.org/1999/xlink">
<title>medical-notes-symbol-of-a-list-paper-on-a-clipboard</title>
<desc>Created using Figma</desc>
<g id="Canvas" transform="translate(686 -885)">
<g id="medical-notes-symbol-of-a-list-paper-on-a-clipboard">
<g id="Group">
<g id="Group">
<g id="Vector">
<use xlink:href="#path0_fill" transform="translate(-686 885)" fill="#434343"/>
</g>
<g id="Vector">
<use xlink:href="#path1_fill" transform="translate(-683.149 892.354)" fill="#434343"/>
</g>
<g id="Vector">
<use xlink:href="#path2_fill" transform="translate(-679.748 892.905)" fill="#434343"/>
</g>
<g id="Vector">
<use xlink:href="#path3_fill" transform="translate(-683.149 895.892)" fill="#434343"/>
</g>
<g id="Vector">
<use xlink:href="#path4_fill" transform="translate(-679.748 896.42)" fill="#434343"/>
</g>
<g id="Vector">
<use xlink:href="#path5_fill" transform="translate(-683.148 899.673)" fill="#434343"/>
</g>
<g id="Vector">
<use xlink:href="#path6_fill" transform="translate(-679.748 900.199)" fill="#434343"/>
</g>
</g>
</g>
</g>
</g>
<defs>
<path id="path0_fill" d="M 11.4345 3.97949L 11.4345 3.51915C 11.4345 2.99644 11.0077 2.57288 10.4825 2.57288L 8.92006 2.57288C 9.05021 2.3391 9.1242 2.0495 9.1242 1.75531C 9.12354 0.788017 8.33209 0 7.35961 0C 6.38714 0 5.59634 0.788017 5.59634 1.75531C 5.59634 2.0495 5.67034 2.3391 5.80048 2.57288L 4.51883 2.57288C 3.99295 2.57288 3.56684 2.99644 3.56684 3.51915L 3.56684 3.97949L 1.44351 3.97949C 0.646113 3.97949 5.54437e-08 4.62238 5.54437e-08 5.41499L 5.54437e-08 19.5638C 5.54437e-08 20.3565 0.646113 21 1.44351 21L 13.5558 21C 14.3532 21 15 20.3571 15 19.5638L 15 5.41499C 15 4.62238 14.3532 3.97949 13.5558 3.97949L 11.4345 3.97949ZM 6.30918 1.75596C 6.30918 1.1794 6.78022 0.709215 7.35895 0.709215C 7.939 0.709215 8.41004 1.1794 8.41004 1.75596C 8.41004 2.08562 8.25545 2.36865 8.01365 2.57353L 6.70491 2.57353C 6.46377 2.36799 6.30918 2.08562 6.30918 1.75596ZM 13.5558 18.7102C 13.5558 19.1974 13.1581 19.5927 12.6679 19.5927L 2.33142 19.5927C 1.84122 19.5927 1.44351 19.1974 1.44351 18.7102L 1.44351 6.29757C 1.44351 5.80966 1.84122 5.41499 2.33142 5.41499L 3.56551 5.41499C 3.56551 5.80309 3.88196 6.1183 4.27241 6.1183L 10.7263 6.1183C 11.1174 6.1183 11.4332 5.80375 11.4332 5.41499L 12.6679 5.41499C 13.1575 5.41499 13.5558 5.81031 13.5558 6.29757L 13.5558 18.7102Z"/>
<path id="path1_fill" d="M 1.25457 2.49407C 1.94745 2.49407 2.50914 1.93576 2.50914 1.24704C 2.50914 0.558317 1.94745 0 1.25457 0C 0.56169 0 0 0.558317 0 1.24704C 0 1.93576 0.56169 2.49407 1.25457 2.49407Z"/>
<path id="path2_fill" d="M 4.99185 7.01411e-08L 0.713499 7.01411e-08C 0.319754 7.01411e-08 2.52017e-07 0.311924 2.52017e-07 0.703305C 2.52017e-07 1.09469 0.319093 1.40661 0.713499 1.40661L 4.99317 1.40661C 5.38692 1.40661 5.70535 1.09469 5.70535 0.703305C 5.70535 0.311924 5.38626 7.01411e-08 4.99185 7.01411e-08Z"/>
<path id="path3_fill" d="M 1.25457 2.49407C 1.94745 2.49407 2.50914 1.93576 2.50914 1.24704C 2.50914 0.558318 1.94745 0 1.25457 0C 0.56169 0 0 0.558318 0 1.24704C 0 1.93576 0.56169 2.49407 1.25457 2.49407Z"/>
<path id="path4_fill" d="M 4.99185 4.90988e-07L 0.713499 4.90988e-07C 0.319754 4.90988e-07 2.52017e-07 0.327027 2.52017e-07 0.718409C 2.52017e-07 1.10979 0.319093 1.4355 0.713499 1.4355L 4.99317 1.4355C 5.38692 1.4355 5.70535 1.10979 5.70535 0.718409C 5.70535 0.327027 5.38626 4.90988e-07 4.99185 4.90988e-07Z"/>
<path id="path5_fill" d="M 1.25391 2.49276C 1.94642 2.49276 2.50782 1.93474 2.50782 1.24638C 2.50782 0.558024 1.94642 0 1.25391 0C 0.561394 0 0 0.558024 0 1.24638C 0 1.93474 0.561394 2.49276 1.25391 2.49276Z"/>
<path id="path6_fill" d="M 4.99185 3.00605e-07L 0.713499 3.00605e-07C 0.319754 3.00605e-07 2.52017e-07 0.327027 2.52017e-07 0.718409C 2.52017e-07 1.10979 0.319093 1.4355 0.713499 1.4355L 4.99317 1.4355C 5.38692 1.4355 5.70535 1.10913 5.70535 0.718409C 5.70535 0.327027 5.38626 3.00605e-07 4.99185 3.00605e-07Z"/>
</defs>
</svg>
