<svg width="25" height="17" viewBox="0 0 25 17" version="1.1" xmlns="http://www.w3.org/2000/svg" xmlns:xlink="http://www.w3.org/1999/xlink">
<title>scooter</title>
<desc>Created using Figma</desc>
<g id="Canvas" transform="translate(2506 4986)">
<g id="scooter">
<g id="Group">
<g id="Group">
<g id="Group">
<g id="Vector">
<use xlink:href="#path0_fill" transform="translate(-2506 -4986)" fill="#4F4F4F"/>
</g>
<g id="Vector">
<use xlink:href="#path1_fill" transform="translate(-2485.27 -4973.21)" fill="#4F4F4F"/>
</g>
</g>
</g>
</g>
</g>
</g>
<defs>
<path id="path0_fill" d="M 22.0032 11.0846C 21.6655 11.0846 21.341 11.1409 21.0379 11.243L 20.6251 10.4281C 21.0566 10.267 21.5216 10.1787 22.0032 10.1787C 22.5473 10.1787 23.0738 10.2866 23.5679 10.4996C 23.7728 10.5877 24.0116 10.4954 24.1011 10.2932C 24.1905 10.0908 24.0969 9.8552 23.892 9.7669C 23.2949 9.50971 22.6595 9.37931 22.0032 9.37931C 21.3927 9.37931 20.8042 9.49682 20.2615 9.71052L 18.7612 6.74911C 18.8322 6.76131 18.905 6.76803 18.9795 6.76803L 19.8434 6.76803C 20.0671 6.76803 20.2484 6.58913 20.2484 6.36834L 20.2484 4.66301C 20.2484 4.44222 20.0671 4.26332 19.8434 4.26332L 18.9795 4.26332C 18.4867 4.26332 18.059 4.54214 17.8489 4.94823L 17.4206 4.10292C 17.2043 3.67589 16.7694 3.41066 16.2857 3.41066L 15.5238 3.41066C 15.3001 3.41066 15.1188 3.58956 15.1188 3.81034C 15.1188 4.03113 15.3001 4.21003 15.5238 4.21003L 16.2857 4.21003C 16.4606 4.21003 16.618 4.30601 16.6962 4.46045L 17.745 6.53066L 17.5481 6.62787C 17.1154 6.84135 16.8467 7.27057 16.8467 7.748L 16.8467 11.9373L 13.3639 11.9373C 12.6345 11.9373 12.041 11.3516 12.041 10.6317L 12.041 8.89969L 12.068 8.89969C 12.7677 8.89969 13.3369 8.33789 13.3369 7.64734C 13.3369 6.95678 12.7677 6.39498 12.068 6.39498L 8.61231 6.39498C 8.26539 6.39498 7.9507 6.53322 7.72138 6.75667L 7.72138 0.826019C 7.72138 0.370536 7.34595 0 6.88445 0L 0.836933 0C 0.375432 0 0 0.370536 0 0.826019L 0 6.79467C 0 7.25015 0.375432 7.62069 0.836933 7.62069L 1.7459 7.62069C 1.72678 7.7026 1.71636 7.78701 1.71776 7.87329C 1.72684 8.43925 2.20076 8.89969 2.77424 8.89969L 4.95146 8.89969C 4.67765 9.07224 4.44309 9.25488 4.24789 9.42802C 3.35065 10.2238 2.87117 11.1721 2.72165 11.7942C 2.64104 12.1296 2.71841 12.476 2.93402 12.7447C 3.14665 13.0097 3.46517 13.1615 3.80815 13.1615C 3.80891 13.1615 3.80961 13.1615 3.81037 13.1615L 4.02376 13.1611C 3.93418 13.445 3.88769 13.7422 3.88769 14.0423C 3.88769 15.6732 5.23202 17 6.88445 17C 8.39946 17 9.6547 15.8844 9.85308 14.442L 17.6836 14.442C 17.9072 14.442 18.0886 14.2631 18.0886 14.0423C 18.0886 13.7819 18.1149 13.5217 18.1669 13.2691C 18.3832 12.2175 19.0293 11.3356 19.9011 10.7865L 20.3138 11.6011C 19.5251 12.1344 19.0065 13.0296 19.0065 14.0423C 19.0065 15.6732 20.3508 17 22.0032 17C 23.6557 17 25 15.6732 25 14.0423C 25 12.4114 23.6557 11.0846 22.0032 11.0846ZM 8.61231 7.19436L 12.068 7.19436C 12.3211 7.19436 12.527 7.39756 12.527 7.64734C 12.527 7.89711 12.3211 8.10031 12.068 8.10031L 8.61231 8.10031C 8.35923 8.10031 8.15335 7.89711 8.15335 7.64734C 8.15335 7.39756 8.35923 7.19436 8.61231 7.19436ZM 0.809935 0.826019C 0.809935 0.811364 0.82203 0.799373 0.836933 0.799373L 6.88445 0.799373C 6.89935 0.799373 6.91145 0.811364 6.91145 0.826019L 6.91145 1.70533L 0.809935 1.70533L 0.809935 0.826019ZM 0.836933 6.82132C 0.82203 6.82132 0.809935 6.80933 0.809935 6.79467L 0.809935 2.5047L 6.91145 2.5047L 6.91145 6.79467C 6.91145 6.80933 6.89935 6.82132 6.88445 6.82132L 0.836933 6.82132ZM 2.77424 8.10031C 2.64039 8.10031 2.52975 7.99282 2.52765 7.86071C 2.52657 7.7949 2.55184 7.73282 2.59865 7.68592C 2.63159 7.65298 2.67252 7.63113 2.71695 7.62069L 7.34411 7.62197C 7.34395 7.63044 7.34347 7.63881 7.34347 7.64734C 7.34347 7.80705 7.37424 7.95973 7.4297 8.10031L 2.77424 8.10031ZM 3.80886 12.3621C 3.80864 12.3621 3.80842 12.3621 3.80821 12.3621C 3.67954 12.3621 3.60308 12.2909 3.56895 12.2484C 3.50832 12.1728 3.48677 12.0745 3.50977 11.9787C 3.80821 10.737 5.36172 8.89969 7.74838 8.89969C 9.60113 8.89969 10.2916 10.6473 10.2916 11.7489C 10.2916 12.0476 10.1245 12.3504 9.80502 12.351L 3.80886 12.3621ZM 7.34341 14.0423C 7.34341 14.2921 7.13753 14.4953 6.88445 14.4953C 6.63137 14.4953 6.42549 14.2921 6.42549 14.0423C 6.42549 13.7925 6.63137 13.5893 6.88445 13.5893C 7.13753 13.5893 7.34341 13.7925 7.34341 14.0423ZM 6.88445 16.2006C 5.67862 16.2006 4.69762 15.2324 4.69762 14.0423C 4.69762 13.7367 4.76426 13.4357 4.88963 13.1595L 5.98737 13.1575C 5.75778 13.3842 5.61555 13.6972 5.61555 14.0423C 5.61555 14.7329 6.18477 15.2947 6.88445 15.2947C 7.58413 15.2947 8.15335 14.7329 8.15335 14.0423C 8.15335 13.6954 8.00966 13.3811 7.77802 13.1541L 8.87586 13.152C 9.00346 13.4302 9.07127 13.7339 9.07127 14.0423C 9.07127 15.2324 8.09028 16.2006 6.88445 16.2006ZM 17.3732 13.1101C 17.3371 13.2853 17.3113 13.4633 17.2958 13.6426L 9.85356 13.6426C 9.83051 13.4755 9.79293 13.3108 9.74163 13.1505L 9.80643 13.1504C 10.5447 13.149 11.1015 12.5465 11.1015 11.7489C 11.1015 10.884 10.8098 10.0076 10.3013 9.3444C 10.1897 9.19892 10.0543 9.04629 9.89244 8.89969L 11.2311 8.89969L 11.2311 10.6317C 11.2311 11.7924 12.1879 12.7367 13.3639 12.7367L 17.2516 12.7367C 17.3414 12.7367 17.424 12.7075 17.4911 12.6588C 17.4448 12.8061 17.4048 12.9564 17.3732 13.1101ZM 18.9795 5.0627L 19.4384 5.0627L 19.4384 5.96865L 18.9795 5.96865C 18.7264 5.96865 18.5205 5.76545 18.5205 5.51567C 18.5205 5.2659 18.7264 5.0627 18.9795 5.0627ZM 17.6566 12.2151L 17.6566 7.74795C 17.6566 7.57529 17.7538 7.42005 17.9103 7.34277L 18.1072 7.24557L 19.5376 10.0689C 18.7107 10.5699 18.0457 11.3161 17.6566 12.2151ZM 22.0032 16.2006C 20.7974 16.2006 19.8164 15.2324 19.8164 14.0423C 19.8164 12.8522 20.7974 11.884 22.0032 11.884C 23.2091 11.884 24.1901 12.8522 24.1901 14.0423C 24.1901 15.2324 23.2091 16.2006 22.0032 16.2006Z"/>
<path id="path1_fill" d="M 1.2689 0C 0.569222 0 0 0.561799 0 1.25235C 0 1.9429 0.569222 2.5047 1.2689 2.5047C 1.96857 2.5047 2.5378 1.9429 2.5378 1.25235C 2.5378 0.561799 1.96857 0 1.2689 0ZM 1.2689 1.70533C 1.01582 1.70533 0.809935 1.50213 0.809935 1.25235C 0.809935 1.00257 1.01582 0.799373 1.2689 0.799373C 1.52198 0.799373 1.72786 1.00257 1.72786 1.25235C 1.72786 1.50213 1.52198 1.70533 1.2689 1.70533Z"/>
</defs>
</svg>
