<svg width="19" height="16" viewBox="0 0 19 16" version="1.1" xmlns="http://www.w3.org/2000/svg" xmlns:xlink="http://www.w3.org/1999/xlink">
<title>shop</title>
<desc>Created using Figma</desc>
<g id="Canvas" transform="translate(687 -987)">
<g id="shop">
<g id="Group">
<g id="Group">
<g id="Vector">
<use xlink:href="#path0_fill" transform="translate(-677.364 995.713)"/>
</g>
<g id="Vector">
<use xlink:href="#path1_fill" transform="translate(-687 987)"/>
</g>
</g>
</g>
</g>
</g>
<defs>
<path id="path0_fill" d="M 3.86289 0L 1.28116 0C 0.574582 0 -1.18479e-07 0.554177 -1.18479e-07 1.23567L -1.18479e-07 3.14533C -1.18479e-07 3.82682 0.574582 4.381 1.28116 4.381L 3.86289 4.381C 4.56947 4.381 5.14406 3.82682 5.14406 3.14533L 5.14406 1.23567C 5.14406 0.554177 4.56947 0 3.86289 0ZM 4.2123 3.14533C 4.2123 3.33255 4.05313 3.48233 3.86289 3.48233L 1.28116 3.48233C 1.08705 3.48233 0.931754 3.32881 0.931754 3.14533L 0.931754 1.23567C 0.931754 1.04844 1.09093 0.898666 1.28116 0.898666L 3.86289 0.898666C 4.05701 0.898666 4.2123 1.05219 4.2123 1.23567L 4.2123 3.14533Z"/>
<path id="path1_fill" d="M 19 5.24222C 19 5.16359 18.9806 5.0887 18.9379 5.0213L 16.1116 0.228411C 16.03 0.0898667 15.8747 -2.85678e-08 15.7078 -2.85678e-08L 3.28831 -2.85678e-08C 3.12137 -2.85678e-08 2.96608 0.0861222 2.88455 0.228411L 0.0621169 5.0213C 0.0232938 5.0887 0 5.16359 0 5.24222C 0 6.31687 0.671639 7.23801 1.63057 7.64615L 1.63057 15.5507C 1.63057 15.7978 1.84021 16 2.09644 16L 4.67041 16C 4.6743 16 4.67818 16 4.68206 16L 8.2926 16C 8.29649 16 8.30037 16 8.30425 16L 16.8997 16C 17.1559 16 17.3655 15.7978 17.3655 15.5507L 17.3655 7.70232C 17.3655 7.68359 17.3656 7.66862 17.3617 7.65364C 18.3245 7.2455 19 6.32062 19 5.24222ZM 3.56007 0.902411L 15.436 0.902411L 17.6451 4.6506L 1.35492 4.6506L 3.56007 0.902411ZM 13.5221 5.54552C 13.3745 6.35432 12.6408 6.96841 11.7595 6.96841C 10.8782 6.96841 10.1445 6.35432 9.99693 5.54552L 13.5221 5.54552ZM 9.00695 5.54552C 8.85942 6.35432 8.12566 6.96841 7.24438 6.96841C 6.3631 6.96841 5.62934 6.35432 5.47793 5.54552L 9.00695 5.54552ZM 0.962812 5.54552L 4.49183 5.54552C 4.3443 6.35432 3.60666 6.96841 2.72538 6.96841C 1.84409 6.97215 1.11034 6.35432 0.962812 5.54552ZM 7.82673 15.1013L 5.14794 15.1013L 5.14794 10.2523C 5.14794 9.90031 5.44299 9.61198 5.81181 9.61198L 7.16674 9.61198C 7.53167 9.61198 7.83061 9.89656 7.83061 10.2523L 7.83061 15.1013L 7.82673 15.1013ZM 16.4338 15.1013L 8.75848 15.1013L 8.75848 10.2523C 8.75848 9.40604 8.04414 8.71332 7.16285 8.71332L 5.80793 8.71332C 4.93053 8.71332 4.2123 9.40229 4.2123 10.2523L 4.2123 15.1051L 2.56232 15.1051L 2.56232 7.86707C 2.61667 7.87082 2.67103 7.87082 2.72538 7.87082C 3.6649 7.87082 4.49571 7.41025 4.98488 6.71004C 5.47405 7.41025 6.30486 7.87082 7.24438 7.87082C 8.1839 7.87082 9.01083 7.41025 9.50388 6.71004C 9.99305 7.41025 10.8239 7.87082 11.7595 7.87082C 12.699 7.87082 13.526 7.41025 14.0151 6.71004C 14.5043 7.41025 15.3351 7.87082 16.2746 7.87082C 16.329 7.87082 16.3794 7.86707 16.4338 7.86707L 16.4338 15.1013ZM 16.2746 6.97215C 15.3933 6.97215 14.6596 6.35806 14.5121 5.54926L 18.0411 5.54926C 17.8897 6.35432 17.1559 6.97215 16.2746 6.97215Z"/>
</defs>
</svg>
